<svg width="580" height="492.8" xmlns="http://www.w3.org/2000/svg">
 <style type="text/css">.st0{display:none;}
	.st1{display:inline;}
	.st2{stroke:#FFFFFF;stroke-width:4;stroke-miterlimit:10;}
	.st3{fill-rule:evenodd;clip-rule:evenodd;}
	.st4{fill:#D5993B;}
	.st5{fill:#FFFFFF;}
	.st6{fill-rule:evenodd;clip-rule:evenodd;stroke:#FFFFFF;stroke-width:3;stroke-miterlimit:10;}
	.st7{fill-rule:evenodd;clip-rule:evenodd;fill:#D5993B;}
	.st8{fill-rule:evenodd;clip-rule:evenodd;fill:#FFFFFF;}
	.st9{fill:none;stroke:#000000;stroke-width:6;stroke-miterlimit:10;}</style>

 <g>
  <title>background</title>
  <rect fill="none" id="canvas_background" height="494.8" width="582" y="-1" x="-1"/>
 </g>
 <g>
  <title>Layer 1</title>
  <g class="st0" id="Layer_8">
   <g id="svg_1" class="st1">
    <path id="svg_2" d="m40.51,519.28c0,0 43.49,-2.48 58.28,-16.25l404.82,-405.2c3.73,8.35 -46.42,-44.73 -41.67,-42.64l-406.23,406.63c-13.72,14.81 -15.2,57.46 -15.2,57.46z"/>
    <circle id="svg_3" r="15.46" cy="-8.48" cx="567.47"/>
    <polygon id="svg_4" points="550.52001953125,-2.9599990844726562 562.010009765625,8.470001220703125 527.719970703125,51.87000274658203 507.25,31.480003356933594 "/>
    <line id="svg_5" y2="545.64" x2="13.98" y1="83.82" x1="475.79" class="st2"/>
    <g id="svg_6">
     <path id="svg_7" d="m461.33,51.58c-2.78,-0.37 -45.7,-18.2 -85.17,9.63c-8.14,6.05 -8.19,-4.08 -3.93,-8.28c2.49,-2.45 26.81,-34.94 77.21,-32.73c36.47,1.61 24.34,33.06 11.89,31.38z" class="st3"/>
     <g id="svg_8">
      <g id="svg_9">
       <path id="svg_10" d="m462.45,60.2c-1.54,-0.76 -26.13,-12.41 -52.86,-7.72c-7.37,2.5 -2.49,-4.47 -0.67,-5.6c1.39,-0.86 14.26,-10.77 34.31,-12.14c9.09,-0.62 15.51,-8.77 26.03,-4.48c28.82,11.79 0.1,33.36 -6.81,29.94z" class="st3"/>
      </g>
      <g id="svg_11">
       <g id="svg_12">
        <path id="svg_13" d="m480.69,37.19c1.13,1.61 1.8,3.33 2,5.17c0.69,6.17 -4.24,12 -9.08,15.4c-4.56,3.2 -9.1,4.48 -11.56,3.26l0,0c-1.02,-0.51 -25.39,-12.36 -52.3,-7.63c-0.87,0.3 -3.9,1.34 -4.82,-0.56c-0.98,-2.09 2.22,-5.9 3.51,-6.7c0.11,-0.07 0.28,-0.18 0.52,-0.35c12.83,-8.8 25.68,-11.34 34.21,-11.92c3.29,-0.23 6.19,-1.47 9.26,-2.79c5.06,-2.18 10.29,-4.43 17.17,-1.62c5.28,2.14 8.98,4.74 11.09,7.74zm-17.84,22.2c1.79,0.89 5.88,-0.43 9.72,-3.12c4.42,-3.1 8.93,-8.33 8.32,-13.72c-0.51,-4.55 -4.54,-8.4 -11.97,-11.44c-6.18,-2.53 -10.84,-0.52 -15.77,1.6c-3.07,1.32 -6.25,2.69 -9.85,2.94c-8.3,0.57 -20.82,3.04 -33.31,11.61c-0.27,0.19 -0.47,0.32 -0.59,0.4c-1.23,0.77 -3.16,3.76 -2.83,4.39c0,0 0.48,0.35 2.73,-0.41c27.62,-4.87 52.5,7.23 53.55,7.75l0,0z"/>
       </g>
      </g>
     </g>
    </g>
    <g id="svg_14">
     <path id="svg_15" d="m541.01,111.78c2.21,50.4 -30.28,74.72 -32.73,77.21c-4.2,4.26 -14.33,4.22 -8.28,-3.93c27.84,-39.47 10.01,-82.39 9.63,-85.17c-1.67,-12.46 29.78,-24.58 31.38,11.89z" class="st3"/>
     <g id="svg_16">
      <g id="svg_17">
       <path id="svg_18" d="m530.94,91.95c4.3,10.52 -3.85,16.93 -4.48,26.03c-1.37,20.05 -11.27,32.92 -12.14,34.31c-1.13,1.82 -8.1,6.7 -5.6,-0.67c4.7,-26.72 -6.95,-51.32 -7.72,-52.86c-3.4,-6.9 18.16,-35.62 29.94,-6.81z" class="st3"/>
      </g>
      <g id="svg_19">
       <g id="svg_20">
        <path id="svg_21" d="m531.78,91.61c2.81,6.88 0.56,12.11 -1.62,17.17c-1.32,3.07 -2.57,5.97 -2.79,9.26c-0.58,8.52 -3.12,21.38 -11.92,34.21c-0.16,0.24 -0.28,0.41 -0.35,0.52c-0.8,1.29 -4.61,4.5 -6.7,3.51c-1.91,-0.91 -0.87,-3.95 -0.56,-4.82c4.73,-26.9 -7.13,-51.27 -7.63,-52.3l0,0c-1.22,-2.46 0.06,-7 3.26,-11.56c3.4,-4.84 9.23,-9.77 15.4,-9.08c1.84,0.21 3.56,0.87 5.17,2c2.99,2.11 5.59,5.82 7.74,11.09zm-29.95,6.76c0.52,1.05 12.63,25.94 7.76,53.55c-0.76,2.25 -0.41,2.73 -0.41,2.73c0.63,0.34 3.62,-1.59 4.39,-2.83c0.07,-0.12 0.21,-0.32 0.4,-0.59c8.57,-12.49 11.04,-25.01 11.61,-33.31c0.25,-3.6 1.61,-6.78 2.94,-9.85c2.12,-4.93 4.13,-9.59 1.6,-15.77c-3.04,-7.43 -6.89,-11.46 -11.44,-11.97c-5.39,-0.6 -10.62,3.9 -13.72,8.32c-2.71,3.84 -4.02,7.93 -3.13,9.72l0,0z"/>
       </g>
      </g>
     </g>
    </g>
    <g id="svg_22">
     <g id="svg_23">
      <path id="svg_24" d="m469.92,78.26c0,0 0.28,3.12 -3.69,4.42c-3.97,1.3 -5.14,0.45 -8.06,6.11c-0.53,1.01 -0.75,-0.02 -0.66,-0.66s0.53,-6.6 3.51,-8.72s4.37,-2.69 8.9,-1.15z"/>
      <path id="svg_25" d="m482.96,91.3c0,0 -3.12,-0.28 -4.42,3.69c-1.3,3.97 -0.45,5.14 -6.11,8.06c-1.01,0.53 0.02,0.75 0.66,0.66c0.64,-0.09 6.6,-0.53 8.72,-3.51c2.12,-2.98 2.7,-4.37 1.15,-8.9z"/>
      <path id="svg_26" d="m448.64,111.2c1.56,1.23 20.01,-6.83 25.4,-10.86c2.72,-2.69 1.39,-7.89 6.22,-9.47c4.84,-1.58 -6.54,-14.16 -10.2,-11.03c-0.35,5.44 -6.72,4.01 -9.18,7.08c-2.39,3.09 -13.8,23.05 -12.24,24.28z" class="st3"/>
     </g>
    </g>
    <path id="svg_27" d="m505.99,113.58l0,0c-0.3,-0.72 -0.73,-1.38 -1.29,-1.93l-58.22,-58.22c-0.54,-0.54 -1.18,-0.97 -1.88,-1.26l-0.21,-0.09c-4.55,-1.91 -4.86,-8.23 -0.52,-10.58l36.36,-19.68c2.29,-1.24 5.11,-0.83 6.95,1.01c0,0 12.04,5.02 27.54,20.52s21.05,28.07 21.05,28.07c1.86,1.86 2.26,4.74 0.96,7.04l-20.18,35.8c-2.42,4.26 -8.7,3.86 -10.56,-0.68z"/>
   </g>
  </g>
  <g id="Layer_5">
   <g id="svg_28">
    <g id="svg_29">
     <path id="svg_30" d="m485.51,489c0,0 -2.49,-43.79 -16.36,-58.68l-368.56,-368.17c8.41,-3.75 -45.04,46.74 -42.93,41.96l369.99,369.59c14.92,13.81 57.86,15.3 57.86,15.3z" class="st4"/>
     <path id="svg_31" d="m489.37,492.78l-3.99,-0.14c-1.81,-0.06 -44.48,-1.7 -60.21,-16.27l-0.1,-0.1l-368.88,-368.49c-0.2,-0.1 -0.4,-0.23 -0.6,-0.37c-1.24,-0.85 -2.17,-2.71 -1.25,-4.78l2.15,-4.87l1.87,1.86c7.56,-6.11 31.37,-28.6 38.1,-36.48l-2.18,-2.17l4.84,-2.16c3.32,-1.49 5.04,0.69 5.35,1.14c0.36,0.52 0.6,1.04 0.69,1.59l366.62,366.24l0.04,0.05c14.6,15.68 17.23,59.12 17.33,60.96l0.22,3.99zm-59.2,-21.71c11.21,10.31 40.55,13.29 51.37,14.05c-1,-10.98 -4.62,-41.03 -15.03,-52.28l-364.92,-364.54c-1.93,2.24 -4.72,5.15 -8.62,9.06c-6.14,6.17 -14.16,13.82 -20.91,19.96c-3.72,3.38 -6.45,5.81 -8.54,7.51l366.65,366.24z"/>
    </g>
    <path id="svg_32" d="m62.23,48.07l-34.68,-27.41c0.15,-0.8 0.23,-1.63 0.23,-2.47c0,-7.6 -6.16,-13.76 -13.76,-13.76c-7.6,0 -13.76,6.16 -13.76,13.76c0,7.6 6.16,13.76 13.76,13.76c0.87,0 1.72,-0.09 2.54,-0.24l27.52,34.58l18.15,-18.22z"/>
    <g id="svg_33">
     <polyline id="svg_34" points="85.00999450683594,91.6199951171875 87.94999694824219,88.67999267578125 481.29998779296875,482.030029296875 481.6099853515625,485.07000732421875 478.32000732421875,484.94000244140625 " class="st5"/>
    </g>
    <g id="svg_35">
     <path id="svg_36" d="m58.16,103.34c-0.33,2.47 -16.2,40.67 8.57,75.79c5.38,7.24 -3.63,7.29 -7.36,3.49c-2.18,-2.22 -31.09,-23.86 -29.12,-68.7c1.42,-32.45 29.41,-21.66 27.91,-10.58z" class="st3"/>
     <g id="svg_37">
      <g id="svg_38">
       <path id="svg_39" d="m65.84,102.34c-0.68,1.37 -11.05,23.25 -6.87,47.03c2.23,6.56 -3.98,2.22 -4.98,0.6c-0.77,-1.24 -9.58,-12.69 -10.8,-30.53c-0.55,-8.09 -7.81,-13.8 -3.98,-23.16c10.48,-25.64 29.67,-0.09 26.63,6.06z" class="st3"/>
      </g>
      <g id="svg_40">
       <g id="svg_41">
        <path id="svg_42" d="m45.35,86.11c1.43,-1 2.96,-1.6 4.6,-1.78c5.49,-0.62 10.68,3.77 13.7,8.08c2.85,4.06 3.99,8.1 2.9,10.29l0,0c-0.45,0.91 -11,22.6 -6.79,46.54c0.27,0.77 1.2,3.47 -0.5,4.28c-1.86,0.88 -5.25,-1.98 -5.96,-3.13c-0.06,-0.09 -0.16,-0.25 -0.31,-0.46c-7.83,-11.42 -10.09,-22.85 -10.61,-30.44c-0.2,-2.93 -1.31,-5.51 -2.49,-8.24c-1.94,-4.5 -3.94,-9.16 -1.44,-15.28c1.93,-4.69 4.23,-7.98 6.9,-9.86zm19.77,15.87c0.79,-1.59 -0.38,-5.23 -2.78,-8.65c-2.76,-3.93 -7.41,-7.94 -12.21,-7.4c-4.05,0.46 -7.48,4.04 -10.18,10.65c-2.25,5.5 -0.46,9.64 1.43,14.03c1.18,2.73 2.39,5.56 2.61,8.77c0.5,7.39 2.71,18.52 10.33,29.64c0.17,0.24 0.29,0.42 0.35,0.53c0.68,1.1 3.34,2.82 3.91,2.52c0,0 0.31,-0.43 -0.37,-2.43c-4.33,-24.58 6.44,-46.72 6.91,-47.66l0,0z" class="st5"/>
       </g>
      </g>
     </g>
    </g>
    <g id="svg_43">
     <path id="svg_44" d="m111.73,32.43c44.85,-1.97 66.49,26.94 68.7,29.12c3.79,3.73 3.75,12.75 -3.49,7.36c-35.12,-24.77 -73.32,-8.9 -75.79,-8.57c-11.08,1.5 -21.87,-26.48 10.58,-27.91z" class="st3"/>
     <g id="svg_45">
      <g id="svg_46">
       <path id="svg_47" d="m94.09,41.39c9.36,-3.83 15.07,3.43 23.16,3.98c17.84,1.22 29.29,10.03 30.53,10.8c1.62,1 5.96,7.21 -0.6,4.98c-23.78,-4.18 -45.67,6.19 -47.03,6.87c-6.14,3.05 -31.7,-16.15 -6.06,-26.63z" class="st3"/>
      </g>
      <g id="svg_48">
       <g id="svg_49">
        <path id="svg_50" d="m93.79,40.65c6.12,-2.5 10.78,-0.5 15.28,1.44c2.73,1.18 5.31,2.29 8.24,2.49c7.59,0.52 19.02,2.78 30.44,10.61c0.21,0.15 0.37,0.25 0.46,0.31c1.15,0.71 4,4.1 3.13,5.96c-0.81,1.7 -3.51,0.77 -4.28,0.5c-23.94,-4.21 -45.63,6.34 -46.54,6.79l0,0c-2.19,1.08 -6.23,-0.06 -10.29,-2.9c-4.31,-3.02 -8.7,-8.21 -8.08,-13.7c0.18,-1.63 0.78,-3.17 1.78,-4.6c1.87,-2.68 5.17,-4.99 9.86,-6.9zm6.01,26.65c0.93,-0.46 23.08,-11.24 47.65,-6.9c2,0.68 2.43,0.36 2.43,0.37c0.3,-0.56 -1.42,-3.23 -2.52,-3.91c-0.11,-0.06 -0.28,-0.18 -0.53,-0.35c-11.11,-7.62 -22.25,-9.82 -29.64,-10.33c-3.21,-0.22 -6.04,-1.44 -8.77,-2.61c-4.39,-1.89 -8.54,-3.67 -14.03,-1.43c-6.61,2.7 -10.2,6.13 -10.65,10.18c-0.54,4.8 3.47,9.45 7.4,12.21c3.43,2.39 7.06,3.56 8.66,2.77l0,0z" class="st5"/>
       </g>
      </g>
     </g>
    </g>
    <g id="svg_51">
     <g id="svg_52">
      <path id="svg_53" d="m81.91,95.69c0,0 2.78,-0.25 3.93,3.28s0.4,4.58 5.44,7.17c0.9,0.47 -0.02,0.66 -0.58,0.58s-5.87,-0.47 -7.76,-3.12c-1.89,-2.64 -2.41,-3.88 -1.03,-7.91z"/>
      <path id="svg_54" d="m93.51,84.09c0,0 -0.25,2.78 3.28,3.93s4.58,0.4 7.17,5.44c0.47,0.9 0.66,-0.02 0.58,-0.58s-0.47,-5.87 -3.12,-7.76c-2.64,-1.89 -3.88,-2.41 -7.91,-1.03z"/>
      <path id="svg_55" d="m111.22,114.63c1.1,-1.39 -6.08,-17.8 -9.67,-22.6c-2.39,-2.42 -7.02,-1.23 -8.43,-5.54c-1.41,-4.3 -12.6,5.82 -9.81,9.07c4.84,0.31 3.57,5.98 6.3,8.17c2.75,2.14 20.52,12.29 21.61,10.9z" class="st3"/>
     </g>
    </g>
    <path id="svg_56" d="m113.33,63.6l0,0c-0.64,0.26 -1.23,0.65 -1.72,1.14l-51.81,51.81c-0.48,0.48 -0.86,1.05 -1.12,1.67l-0.08,0.19c-1.7,4.05 -7.33,4.33 -9.42,0.47l-17.51,-32.35c-1.1,-2.03 -0.73,-4.55 0.9,-6.18c0,0 4.47,-10.71 18.26,-24.51s24.98,-18.73 24.98,-18.73c1.66,-1.66 4.22,-2.01 6.26,-0.86l31.85,17.96c3.81,2.14 3.46,7.74 -0.59,9.39z"/>
   </g>
   <g id="svg_57">
    <g id="svg_58">
     <path id="svg_59" d="m151.89,473.7l369.99,-369.59c2.11,4.78 -51.34,-45.72 -42.93,-41.96l-368.56,368.17c-13.86,14.89 -16.36,58.68 -16.36,58.68s42.95,-1.49 57.86,-15.3z" class="st4"/>
     <path id="svg_60" d="m90.4,488.79c0.1,-1.84 2.74,-45.28 17.33,-60.96l0.04,-0.05l366.62,-366.24c0.09,-0.56 0.33,-1.07 0.69,-1.59c0.31,-0.45 2.03,-2.62 5.35,-1.14l4.84,2.16l-2.18,2.17c6.73,7.88 30.54,30.38 38.1,36.48l1.87,-1.86l2.15,4.87c0.91,2.07 -0.01,3.93 -1.25,4.78c-0.2,0.14 -0.41,0.26 -0.6,0.37l-368.89,368.5l-0.1,0.1c-15.73,14.56 -58.4,16.21 -60.21,16.27l-3.99,0.14l0.23,-4zm425.61,-383.97c-2.09,-1.7 -4.83,-4.13 -8.54,-7.51c-6.76,-6.14 -14.77,-13.79 -20.91,-19.96c-3.9,-3.91 -6.69,-6.82 -8.62,-9.06l-364.92,364.56c-10.41,11.25 -14.03,41.3 -15.03,52.28c10.83,-0.76 40.16,-3.74 51.37,-14.05l366.65,-366.26z"/>
    </g>
    <path id="svg_61" d="m517.31,48.07l34.68,-27.41c-0.15,-0.8 -0.23,-1.63 -0.23,-2.47c0,-7.6 6.16,-13.76 13.76,-13.76c7.6,0 13.76,6.16 13.76,13.76c0,7.6 -6.16,13.76 -13.76,13.76c-0.87,0 -1.72,-0.09 -2.54,-0.24l-27.52,34.58l-18.15,-18.22z"/>
    <g id="svg_62">
     <polyline id="svg_63" points="494.530029296875,91.6199951171875 491.59002685546875,88.67999267578125 98.24000549316406,482.030029296875 97.94000244140625,485.07000732421875 101.22000122070312,484.94000244140625 " class="st5"/>
    </g>
    <g id="svg_64">
     <path id="svg_65" d="m549.29,113.92c1.97,44.85 -26.94,66.49 -29.12,68.7c-3.73,3.79 -12.75,3.75 -7.36,-3.49c24.77,-35.12 8.9,-73.32 8.57,-75.79c-1.49,-11.08 26.49,-21.87 27.91,10.58z" class="st3"/>
     <g id="svg_66">
      <g id="svg_67">
       <path id="svg_68" d="m540.34,96.28c3.83,9.36 -3.43,15.07 -3.98,23.16c-1.22,17.84 -10.03,29.29 -10.8,30.53c-1,1.62 -7.21,5.96 -4.98,-0.6c4.18,-23.78 -6.19,-45.67 -6.87,-47.03c-3.05,-6.15 16.15,-31.7 26.63,-6.06z" class="st3"/>
      </g>
      <g id="svg_69">
       <g id="svg_70">
        <path id="svg_71" d="m541.08,95.97c2.5,6.12 0.5,10.78 -1.44,15.28c-1.18,2.73 -2.29,5.31 -2.49,8.24c-0.52,7.59 -2.78,19.02 -10.61,30.44c-0.15,0.21 -0.25,0.37 -0.31,0.46c-0.71,1.15 -4.1,4 -5.96,3.13c-1.7,-0.81 -0.77,-3.51 -0.5,-4.28c4.21,-23.94 -6.34,-45.63 -6.79,-46.54l0,0c-1.08,-2.19 0.06,-6.23 2.9,-10.29c3.02,-4.31 8.21,-8.7 13.7,-8.08c1.63,0.18 3.17,0.78 4.6,1.78c2.68,1.88 4.98,5.17 6.9,9.86zm-26.65,6.01c0.46,0.93 11.24,23.08 6.9,47.65c-0.68,2 -0.36,2.43 -0.37,2.43c0.56,0.3 3.23,-1.42 3.91,-2.52c0.06,-0.11 0.18,-0.28 0.35,-0.53c7.62,-11.11 9.82,-22.25 10.33,-29.64c0.22,-3.21 1.44,-6.04 2.61,-8.77c1.89,-4.39 3.67,-8.54 1.43,-14.03c-2.7,-6.61 -6.13,-10.2 -10.18,-10.65c-4.8,-0.54 -9.45,3.47 -12.21,7.4c-2.39,3.43 -3.56,7.07 -2.77,8.66l0,0z" class="st5"/>
       </g>
      </g>
     </g>
    </g>
    <g id="svg_72">
     <path id="svg_73" d="m478.39,60.35c-2.47,-0.33 -40.67,-16.2 -75.79,8.57c-7.24,5.38 -7.29,-3.63 -3.49,-7.36c2.22,-2.18 23.86,-31.09 68.7,-29.12c32.45,1.42 21.66,29.4 10.58,27.91z" class="st3"/>
     <g id="svg_74">
      <g id="svg_75">
       <path id="svg_76" d="m479.39,68.03c-1.37,-0.68 -23.25,-11.05 -47.03,-6.87c-6.56,2.23 -2.22,-3.98 -0.6,-4.98c1.24,-0.77 12.69,-9.58 30.53,-10.8c8.09,-0.55 13.8,-7.81 23.16,-3.98c25.64,10.47 0.08,29.67 -6.06,26.63z" class="st3"/>
      </g>
      <g id="svg_77">
       <g id="svg_78">
        <path id="svg_79" d="m495.62,47.54c1,1.43 1.6,2.96 1.78,4.6c0.62,5.49 -3.77,10.68 -8.08,13.7c-4.06,2.85 -8.1,3.99 -10.29,2.9l0,0c-0.91,-0.45 -22.6,-11 -46.54,-6.79c-0.77,0.27 -3.47,1.2 -4.28,-0.5c-0.88,-1.86 1.98,-5.25 3.13,-5.96c0.09,-0.06 0.25,-0.16 0.46,-0.31c11.42,-7.83 22.85,-10.09 30.44,-10.61c2.93,-0.2 5.51,-1.31 8.24,-2.49c4.5,-1.94 9.16,-3.94 15.28,-1.44c4.68,1.92 7.98,4.23 9.86,6.9zm-15.88,19.76c1.59,0.79 5.23,-0.38 8.65,-2.78c3.93,-2.76 7.94,-7.41 7.4,-12.21c-0.46,-4.05 -4.04,-7.48 -10.65,-10.18c-5.5,-2.25 -9.64,-0.46 -14.03,1.43c-2.73,1.18 -5.56,2.39 -8.77,2.61c-7.39,0.5 -18.52,2.71 -29.64,10.33c-0.24,0.17 -0.42,0.29 -0.53,0.35c-1.1,0.68 -2.82,3.34 -2.52,3.91c0,0 0.43,0.31 2.43,-0.37c24.59,-4.32 46.73,6.45 47.66,6.91l0,0z" class="st5"/>
       </g>
      </g>
     </g>
    </g>
    <g id="svg_80">
     <g id="svg_81">
      <path id="svg_82" d="m497.63,95.69c0,0 -2.78,-0.25 -3.93,3.28c-1.15,3.53 -0.4,4.58 -5.44,7.17c-0.9,0.47 0.02,0.66 0.58,0.58s5.87,-0.47 7.76,-3.12s2.41,-3.88 1.03,-7.91z"/>
      <path id="svg_83" d="m486.03,84.09c0,0 0.25,2.78 -3.28,3.93s-4.58,0.4 -7.17,5.44c-0.47,0.9 -0.66,-0.02 -0.58,-0.58s0.47,-5.87 3.12,-7.76c2.64,-1.89 3.88,-2.41 7.91,-1.03z"/>
      <path id="svg_84" d="m489.94,103.74c2.72,-2.19 1.46,-7.86 6.3,-8.17c2.79,-3.25 -8.41,-13.38 -9.81,-9.07c-1.41,4.3 -6.04,3.12 -8.43,5.54c-3.58,4.8 -10.76,21.21 -9.67,22.6c1.09,1.38 18.85,-8.77 21.61,-10.9z" class="st3"/>
     </g>
    </g>
    <path id="svg_85" d="m466.21,63.6l0,0c0.64,0.26 1.23,0.65 1.72,1.14l51.81,51.81c0.48,0.48 0.86,1.05 1.12,1.67l0.08,0.19c1.7,4.05 7.33,4.33 9.42,0.47l17.51,-32.35c1.1,-2.03 0.73,-4.55 -0.9,-6.18c0,0 -4.47,-10.71 -18.26,-24.51c-13.79,-13.79 -24.98,-18.73 -24.98,-18.73c-1.66,-1.66 -4.22,-2.01 -6.26,-0.86l-31.85,17.96c-3.81,2.14 -3.46,7.74 0.59,9.39z"/>
   </g>
  </g>
  <g id="Layer_3"/>
  <g id="Layer_4">
   <g id="svg_86">
    <path id="svg_87" d="m289.54,97.96l163.83,31.41l0,72.19l47.1,92.74l-51.24,0c-28.72,100.28 -89.47,144.89 -159.69,185.24c-70.23,-40.34 -130.97,-84.95 -159.24,-185.24l-54.01,0l49.95,-98.35l0,-66.58l163.3,-31.41m0,-8.15l-1.51,0.29l-163.31,31.41l-6.49,1.25l0,6.61l0,64.67l-49.08,96.64l-5.9,11.62l13.04,0l48.01,0c13.46,44.76 34.47,81.66 64.11,112.63c29.4,30.72 64.07,52.54 97.15,71.55l3.99,2.29l3.98,-2.29c33.07,-18.99 67.73,-40.81 97.2,-71.54c29.7,-30.97 50.83,-67.86 64.49,-112.63l45.26,0l13.04,0l-5.9,-11.62l-46.23,-91.03l0,-70.28l0,-6.61l-6.49,-1.24l-163.85,-31.43l-1.51,-0.29l0,0z"/>
   </g>
   <path id="svg_88" d="m500.47,294.29l-47.1,-92.74l0,-72.19l-163.83,-31.41l-163.31,31.41l0,66.58l-49.95,98.35l54.01,0c28.27,100.28 89.02,144.89 159.24,185.24c70.23,-40.34 130.97,-84.95 159.69,-185.24l51.25,0z" class="st6"/>
  </g>
  <g id="Layer_6">
   <g id="svg_89">
    <g id="svg_90">
     <path id="svg_91" d="m172.44,322.48c23.3,99.25 52.97,96.68 118.68,134.42c65.7,-37.74 95.38,-35.17 119.14,-134.42l-118.91,105.97l-118.91,-105.97z" class="st7"/>
    </g>
    <polygon id="svg_92" points="172.44000244140625,322.4800109863281 289.9700012207031,446.8699951171875 410.260009765625,322.4800109863281 291.3500061035156,428.45001220703125 " class="st8"/>
   </g>
  </g>
  <g id="Layer_9"/>
  <g id="Layer_7">
   <g id="XMLID_1_">
    <g id="svg_93">
     <g id="svg_94">
      <path id="svg_95" d="m377.53,111.31c10.93,23.32 16.28,74.08 -1.94,82.58c-16.28,7.53 -45.18,-19.19 -59.51,-42.02l-51.26,0c-14.57,23.08 -43.47,49.56 -59.51,42.02c-18.46,-8.5 -13.12,-59.26 -2.18,-82.58c3.52,-7.41 8.32,-13.66 13.81,-18.46c5.5,-4.8 11.69,-8.14 18,-9.72l0.49,0c5.1,-1.22 10.45,-1.22 15.55,0l78.45,0c5.1,-1.22 10.45,-1.22 15.55,0l0.48,0c12.88,3.16 25.03,13.36 32.07,28.18zm-6.55,13.85c0,-4.62 -3.65,-8.26 -8.26,-8.26c-4.61,0 -8.26,3.64 -8.26,8.26c0,4.61 3.64,8.26 8.26,8.26c4.37,-0.01 8.26,-3.65 8.26,-8.26zm-16.77,-16.52c0,-4.61 -3.64,-8.26 -8.26,-8.26c-4.37,0 -8.26,3.65 -8.26,8.26c0,4.61 3.64,8.26 8.26,8.26c4.62,0 8.26,-3.65 8.26,-8.26zm0,33.28c0,-4.61 -3.64,-8.26 -8.26,-8.26c-4.61,0 -8.26,3.65 -8.26,8.26s3.64,8.26 8.26,8.26c4.62,-0.01 8.26,-3.89 8.26,-8.26zm-16.51,-16.76c0,-4.62 -3.65,-8.26 -8.26,-8.26c-4.61,0 -8.26,3.64 -8.26,8.26c0,4.61 3.64,8.26 8.26,8.26c4.61,-0.01 8.26,-3.65 8.26,-8.26zm-32.31,16.76c1.7,0 2.91,-1.22 2.67,-2.67c0,-1.46 -1.22,-2.67 -2.67,-2.67l-8.26,0c-1.45,0 -2.67,1.21 -2.67,2.67c0,1.45 1.22,2.67 2.67,2.67l8.26,0zm-19.19,-2.67c0,-1.46 -1.22,-2.67 -2.67,-2.67l-8.26,0c-1.45,0 -2.67,1.21 -2.67,2.67c0,1.45 1.22,2.67 2.67,2.67l8.26,0c1.45,0 2.67,-1.22 2.67,-2.67zm-24.53,-7.05l0,-7.04l0,-6.56l-6.8,0l-6.8,0l-8.26,6.8l8.26,6.8l6.8,0l6.8,0zm-17.98,17.97l0,-7.04l-0.24,0l0,-6.8l-6.8,-8.26l-6.8,8.26l0,6.8l0,7.04l7.04,0l6.8,0zm0,-36.19l0,-6.8l0,-6.8l-6.8,0l-7.04,0l0,6.8l0.25,0l0,6.8l6.79,8.26l6.8,-8.26zm-17.97,17.98l8.26,-6.8l-8.26,-6.8l-6.8,0l-7.04,0l0,6.8l0,7.04l7.04,0l0,-0.24l6.8,0z" class="st4"/>
      <path id="svg_96" d="m362.71,116.9c4.61,0 8.26,3.64 8.26,8.26c0,4.61 -3.89,8.26 -8.26,8.26c-4.61,0 -8.26,-3.64 -8.26,-8.26c0.01,-4.62 3.65,-8.26 8.26,-8.26z" class="st5"/>
      <path id="svg_97" d="m345.95,100.38c4.61,0 8.26,3.65 8.26,8.26c0,4.61 -3.64,8.26 -8.26,8.26c-4.61,0 -8.26,-3.64 -8.26,-8.26c0.01,-4.61 3.89,-8.26 8.26,-8.26z" class="st5"/>
      <path id="svg_98" d="m345.95,133.65c4.61,0 8.26,3.65 8.26,8.26c0,4.37 -3.64,8.26 -8.26,8.26c-4.61,0 -8.26,-3.64 -8.26,-8.26s3.65,-8.26 8.26,-8.26z" class="st5"/>
      <path id="svg_99" d="m329.44,116.9c4.61,0 8.26,3.64 8.26,8.26c0,4.61 -3.65,8.26 -8.26,8.26c-4.61,0 -8.26,-3.64 -8.26,-8.26c0,-4.62 3.64,-8.26 8.26,-8.26z" class="st5"/>
      <path id="svg_100" d="m308.06,139.25c0.24,1.45 -0.97,2.67 -2.67,2.67l-8.26,0c-1.45,0 -2.67,-1.22 -2.67,-2.67c0,-1.46 1.22,-2.67 2.67,-2.67l8.26,0c1.45,0 2.67,1.21 2.67,2.67z" class="st5"/>
      <path id="svg_101" d="m283.53,136.58c1.45,0 2.67,1.21 2.67,2.67c0,1.45 -1.22,2.67 -2.67,2.67l-8.26,0c-1.45,0 -2.67,-1.22 -2.67,-2.67c0,-1.46 1.22,-2.67 2.67,-2.67l8.26,0z" class="st5"/>
      <polygon id="svg_102" points="261.6700134277344,125.16000366210938 261.6700134277344,132.1999969482422 254.8699951171875,132.1999969482422 248.05999755859375,132.1999969482422 239.80999755859375,125.39999389648438 248.05999755859375,118.60000610351562 254.8699951171875,118.60000610351562 261.6700134277344,118.60000610351562 " class="st5"/>
      <polygon id="svg_103" points="243.69000244140625,143.1300048828125 243.69000244140625,150.1699981689453 236.8900146484375,150.1699981689453 229.83999633789062,150.1699981689453 229.83999633789062,143.1300048828125 229.83999633789062,136.3300018310547 236.64999389648438,128.07000732421875 243.45001220703125,136.3300018310547 243.45001220703125,143.1300048828125 " class="st5"/>
      <polygon id="svg_104" points="243.69000244140625,107.17999267578125 243.69000244140625,113.97999572753906 236.8900146484375,122.24000549316406 230.08999633789062,113.97999572753906 230.08999633789062,107.17999267578125 229.83999633789062,107.17999267578125 229.83999633789062,100.3800048828125 236.8900146484375,100.3800048828125 243.69000244140625,100.3800048828125 " class="st5"/>
      <polygon id="svg_105" points="233.98001098632812,125.16000366210938 225.72000122070312,131.9600067138672 218.92001342773438,131.9600067138672 218.92001342773438,132.1999969482422 211.8699951171875,132.1999969482422 211.8699951171875,125.16000366210938 211.8699951171875,118.36000061035156 218.92001342773438,118.36000061035156 225.72000122070312,118.36000061035156 " class="st5"/>
     </g>
     <g id="svg_106">
      <path id="svg_107" d="m377.53,111.31c-7.04,-14.82 -19.19,-25.02 -32.07,-28.18l-0.48,0c-5.1,-1.22 -10.45,-1.22 -15.55,0l-78.45,0c-5.1,-1.22 -10.45,-1.22 -15.55,0l-0.49,0c-6.31,1.58 -12.5,4.92 -18,9.72c-5.49,4.8 -10.3,11.05 -13.81,18.46c-10.93,23.32 -16.28,74.08 2.18,82.58c16.04,7.53 44.94,-18.94 59.51,-42.02l51.26,0c14.33,22.83 43.23,49.56 59.51,42.02c18.22,-8.5 12.87,-59.26 1.94,-82.58z" class="st9"/>
     </g>
    </g>
   </g>
  </g>
  <g id="Layer_1">
   <g id="svg_108">
    <g id="svg_109">
     <path id="svg_110" d="m141.48,276.96c-6.45,1.35 -12.84,2.03 -19.06,2.03c-6.22,0 -10.64,-0.82 -13.19,-2.45c-2.54,-1.64 -3.56,-4.38 -3.05,-8.22c0.51,-3.84 2.65,-9.37 6.36,-16.59c5.31,-10.33 10.49,-17.41 15.39,-21.23c4.9,-3.82 11.4,-5.73 19.67,-5.73c3.44,0 7.27,0.52 11.55,1.56c0.92,0.22 1.38,0.33 2.3,0.55c-2.4,5.58 -3.6,8.37 -6.01,13.94c-3.91,-0.52 -7.59,-0.78 -11.08,-0.78c-3.48,0 -6.03,0.69 -7.67,2.06c-1.64,1.38 -3.45,4.22 -5.44,8.53c-1.98,4.31 -3.11,7.3 -3.36,8.96c-0.26,1.66 0.06,2.77 0.94,3.31c0.88,0.54 2.59,0.82 5.11,0.82c5.11,-0.19 7.66,-0.28 12.76,-0.47c-2.09,5.48 -3.13,8.23 -5.22,13.71z" class="st5"/>
     <path id="svg_111" d="m188.7,264.5c-1.84,0 -2.76,0 -4.6,0c-1.57,5.39 -2.36,8.09 -3.93,13.48c-7.78,0 -11.68,0 -19.46,0c6,-17.4 12,-34.79 18.01,-52.19c8.11,0 12.17,0 20.28,0c7.43,0 12.4,1.34 15.04,4.01c2.64,2.67 3.25,7.63 1.7,14.88c-1.55,7.24 -4.57,12.42 -9.23,15.54c0.47,7.1 0.75,10.66 1.43,17.76c-7.92,0 -11.88,0 -19.8,0c0.18,-5.4 0.29,-8.09 0.56,-13.48zm3.9,-14.26c2.53,0 4.25,-1.7 5.16,-5.1c0.91,-3.4 -0.01,-5.1 -2.77,-5.1c-1.53,0 -2.3,0 -3.83,0c-1.19,4.08 -1.79,6.12 -2.98,10.2c1.77,0 2.65,0 4.42,0z" class="st5"/>
     <path id="svg_112" d="m228.4,277.97c2.78,-17.4 5.56,-34.79 8.34,-52.19c6.67,0 10.01,0 16.68,0c-1.85,17.4 -3.71,34.79 -5.56,52.19c-7.79,0 -11.68,0 -19.46,0z" class="st5"/>
     <path id="svg_113" d="m269.09,240.5c0.32,-5.89 0.48,-8.83 0.79,-14.72c11.98,0 23.97,0 35.95,0c0.36,5.89 0.54,8.83 0.9,14.72c-3.91,0 -5.87,0 -9.79,0c0.39,12.49 0.77,24.98 1.16,37.47c-7.78,0 -11.68,0 -19.46,0c0.28,-12.49 0.56,-24.98 0.83,-37.47c-4.15,0 -6.23,0 -10.38,0z" class="st5"/>
     <path id="svg_114" d="m328.3,277.97c-1.98,-17.4 -3.95,-34.79 -5.93,-52.19c6.67,0 10.01,0 16.68,0c2.9,17.4 5.81,34.79 8.71,52.19c-7.79,0 -11.68,0 -19.46,0z" class="st5"/>
     <path id="svg_115" d="m409.4,276.96c-5.46,1.35 -11.35,2.03 -17.57,2.03s-11.24,-0.82 -14.99,-2.45c-3.75,-1.64 -6.78,-4.38 -9.1,-8.22c-2.32,-3.84 -4.24,-9.37 -5.84,-16.59c-2.29,-10.33 -2.31,-17.41 -0.21,-21.23c2.09,-3.82 7.19,-5.73 15.46,-5.73c3.44,0 7.65,0.52 12.69,1.56c1.08,0.22 1.62,0.33 2.7,0.55c1.7,5.58 2.55,8.37 4.24,13.94c-4.29,-0.52 -8.17,-0.78 -11.65,-0.78c-3.48,0 -5.53,0.69 -6.15,2.06c-0.62,1.38 -0.35,4.22 0.83,8.53c1.19,4.31 2.26,7.3 3.22,8.96c0.97,1.66 2.09,2.77 3.37,3.31c1.28,0.54 3.19,0.82 5.71,0.82c4.97,-0.19 7.46,-0.28 12.42,-0.47c1.96,5.48 2.93,8.23 4.87,13.71z" class="st5"/>
     <path id="svg_116" d="m453.3,240.81c-7.48,-0.78 -12.78,-1.17 -15.99,-1.17c-3.2,0 -5.03,0.09 -5.47,0.27c-0.45,0.18 -0.54,0.56 -0.29,1.13c0.25,0.57 0.75,1.01 1.49,1.32c0.74,0.31 2.88,0.83 6.43,1.56c3.55,0.73 6.54,1.44 8.95,2.14c2.41,0.7 4.76,1.69 7.07,2.96c2.31,1.27 4.22,2.83 5.71,4.67c1.49,1.84 3.04,4.32 4.64,7.44c3.31,6.44 3.88,11.04 1.59,13.79c-2.29,2.75 -7.22,4.13 -14.68,4.13c-3.59,0 -7.47,-0.23 -11.61,-0.7c-4.14,-0.47 -7.36,-0.94 -9.67,-1.4c-1.42,-0.28 -2.12,-0.42 -3.53,-0.7c-1.81,-5.52 -2.72,-8.27 -4.55,-13.79c8.64,1.14 15.65,1.71 20.93,1.71c2.8,0 3.92,-0.6 3.37,-1.79c-0.24,-0.52 -0.73,-0.9 -1.48,-1.13c-0.75,-0.23 -2.63,-0.56 -5.63,-0.97c-7.95,-1.14 -13.72,-2.92 -17.33,-5.34c-3.61,-2.42 -6.44,-6.37 -8.57,-11.88c-2.71,-7.01 -2.96,-11.81 -0.86,-14.41c2.1,-2.6 6.32,-3.89 12.77,-3.89c4.54,0 10.08,0.49 16.72,1.48c1.32,0.22 1.98,0.33 3.3,0.54c2.69,5.62 4.02,8.43 6.69,14.03z" class="st5"/>
    </g>
   </g>
  </g>
  <g id="Layer_2">
   <g id="svg_117">
    <path id="svg_118" d="m217.94,315.37l-2.34,0l0,7.12l-9.54,0l0,-27.56l11.6,0c4.25,0 7.29,0.71 9.13,2.12c1.84,1.41 2.76,4.03 2.76,7.86s-1.01,6.56 -3.04,8.21l2.71,9.38l-9.71,0l-1.57,-7.13zm-0.04,-7.53c1.34,0 2.02,-0.9 2.02,-2.69s-0.75,-2.69 -2.26,-2.69l-2.1,0l0,5.39l2.34,0l0,-0.01z" class="st5"/>
    <path id="svg_119" d="m264.9,308.71c0,5.02 -1.04,8.66 -3.13,10.92c-2.08,2.26 -5.41,3.39 -9.97,3.39c-4.56,0 -7.9,-1.14 -9.99,-3.41c-2.1,-2.28 -3.15,-5.92 -3.15,-10.92c0,-5 1.04,-8.64 3.13,-10.9c2.08,-2.26 5.42,-3.39 9.99,-3.39c4.58,0 7.91,1.13 9.99,3.39c2.09,2.26 3.13,5.9 3.13,10.92zm-16.61,0c0,2.33 0.23,4.01 0.68,5.04c0.45,1.03 1.4,1.54 2.84,1.54s2.38,-0.51 2.82,-1.52c0.44,-1.01 0.66,-2.71 0.66,-5.08c0,-2.37 -0.21,-4.06 -0.64,-5.06c-0.43,-1 -1.36,-1.5 -2.82,-1.5c-1.45,0 -2.41,0.51 -2.86,1.54c-0.46,1.03 -0.68,2.71 -0.68,5.04z" class="st5"/>
    <path id="svg_120" d="m288.43,322.48l-9.54,0l0,-8.64l-7.86,-18.92l10.12,0l2.59,8.1l2.67,-8.1l10.08,0l-8.06,18.92l0,8.64z" class="st5"/>
    <path id="svg_121" d="m300.03,322.48l6.09,-27.56l14.44,0l6.21,27.56l-9.62,0l-0.78,-3.17l-6.29,0l-0.66,3.17l-9.39,0zm12.83,-20.07l-1.56,9.62l4.07,0l-1.48,-9.62l-1.03,0z" class="st5"/>
    <path id="svg_122" d="m354.07,322.48l-18.51,0l0,-27.56l9.54,0l0,19.78l8.97,0l0,7.78z" class="st5"/>
    <path id="svg_123" d="m363.49,322.48l0,-27.56l20.65,0l0,7.61l-11.1,0l0,2.34l8.64,0l0,7.53l-8.64,0l0,2.47l11.1,0l0,7.61l-20.65,0z" class="st5"/>
   </g>
   <g id="svg_124">
    <g id="svg_125">
     <path id="svg_126" d="m259.88,69.077817l0,-10.08l-8.95,-25.94c-3.37,-0.23 -6.05,-3.05 -6.05,-6.48c0,-3.58 2.92,-6.5 6.5,-6.5s6.5,2.92 6.5,6.5c0,0.79 -0.14,1.55 -0.4,2.26l14.98,5.71l13.43,-18.97c-1.82,-1.37 -3.01,-3.55 -3.01,-6c0,-4.14 3.36,-7.5 7.5,-7.5s7.5,3.36 7.5,7.5c0,2.45 -1.18,4.63 -3.01,6l13.43,18.97l14.98,-5.71c-0.26,-0.7 -0.4,-1.46 -0.4,-2.26c0,-3.58 2.92,-6.5 6.5,-6.5s6.5,2.92 6.5,6.5c0,3.43 -2.67,6.25 -6.05,6.48l-8.95,25.94l0,10.08l-61,0z" class="st4"/>
     <path id="svg_127" d="m290.38,4.577817c2.76,0 5,2.24 5,5s-2.24,5 -5,5c-2.76,0 -5,-2.24 -5,-5s2.24,-5 5,-5m1.94,11.71l15.06,21.28l17.78,-6.78c0.65,0.65 1.43,1.14 2.31,1.44l-9.09,26.34l-56,0l-9.09,-26.34c0.88,-0.3 1.67,-0.79 2.31,-1.44l17.78,6.78l15.06,-21.28c0.62,0.18 1.26,0.28 1.94,0.28c0.67,0.01 1.32,-0.09 1.94,-0.28m37.06,6.29c2.21,0 4,1.79 4,4s-1.79,4 -4,4s-4,-1.79 -4,-4s1.79,-4 4,-4m-78,0c2.21,0 4,1.79 4,4s-1.79,4 -4,4s-4,-1.79 -4,-4s1.79,-4 4,-4m67,38l0,6l-56,0l0,-6l56,0m-28,-61c-5.51,0 -10,4.49 -10,10c0,2.38 0.84,4.58 2.24,6.3l-11.08,15.65l-11.18,-4.27c0.02,-0.22 0.03,-0.45 0.03,-0.68c0,-4.96 -4.04,-9 -9,-9s-9,4.04 -9,9c0,4.16 2.83,7.66 6.66,8.69l8.34,24.15l0,1.16l0,6l0,5l5,0l56,0l5,0l0,-5l0,-6l0,-1.16l8.34,-24.15c3.83,-1.03 6.66,-4.54 6.66,-8.69c0,-4.96 -4.04,-9 -9,-9s-9,4.04 -9,9c0,0.23 0.01,0.46 0.03,0.68l-11.18,4.27l-11.08,-15.65c1.4,-1.72 2.24,-3.91 2.24,-6.3c-0.02,-5.52 -4.51,-10 -10.02,-10l0,0z"/>
    </g>
   </g>
  </g>
 </g>
</svg>