<?xml version="1.0" encoding="utf-8"?>
<!-- Generator: Adobe Illustrator 26.0.1, SVG Export Plug-In . SVG Version: 6.00 Build 0)  -->
<svg version="1.1" id="Layer_1" xmlns="http://www.w3.org/2000/svg" xmlns:xlink="http://www.w3.org/1999/xlink" x="0px" y="0px"
	 viewBox="0 0 2813 565" style="enable-background:new 0 0 2813 565;" xml:space="preserve">
<style type="text/css">
	.st0{fill:#D5993B;}
	.st1{fill:#424242;}
	.st2{fill:#F3F3F3;}
	.st3{fill-rule:evenodd;clip-rule:evenodd;fill:#424242;}
	.st4{fill:#FFFFFF;}
	.st5{fill-rule:evenodd;clip-rule:evenodd;fill:#FFFFFF;}
	.st6{fill:#D4973B;}
</style>
<g>
	<g id="Layer_8">
	</g>
	<g id="Layer_2_00000133521277198903792900000004264997322566940317_">
	</g>
	<g id="Layer_3">
	</g>
	<g id="Layer_5">
	</g>
	<g id="Layer_4">
	</g>
	<g id="Layer_6">
	</g>
	<g id="Layer_10">
	</g>
	<g id="Layer_9">
	</g>
	<g id="Layer_7">
	</g>
	<g id="Layer_11">
		<g id="svg_2">
			<g id="svg_3">
				<path id="svg_4" class="st0" d="M623,260.1c0-12,3.1-20.8,9.9-26.1c6.8-5.2,14.6-7.8,24.5-7.8c27.1,0,48.5,1,65.1,2.6v25h-56.8
					c-4.2,0-7.3,1-9.4,3.1c-2.1,2.1-3.1,5.2-3.1,8.9v25.5l59.4,1.6v24l-59.4,1.6v57.9H623C623,376.3,623,260.1,623,260.1z"/>
				<path id="svg_5" class="st0" d="M767.9,225.7h38l46.9,150.1h-31.3l-9.4-31.3h-51.1l-9.4,31.3H721
					C721,375.8,767.9,225.7,767.9,225.7z M804.9,317.4l-18.2-66.2l-18.2,66.2H804.9L804.9,317.4z"/>
				<path id="svg_6" class="st0" d="M870.5,225.7h24l63.1,99v-99h30.2v150.1h-24l-62.5-99v99h-30.2V225.7
					C871.1,225.7,870.5,225.7,870.5,225.7z"/>
				<path id="svg_7" class="st0" d="M1043.6,252.8h-41.2v-27.1H1115v27.1h-41.2v123.5h-30.2V252.8z"/>
				<path id="svg_8" class="st0" d="M1158.7,225.7h38l46.9,150.1h-31.3l-9.4-31.3H1152l-9.4,31.3h-30.7
					C1111.8,375.8,1158.7,225.7,1158.7,225.7z M1196.3,317.4l-18.2-66.2l-18.2,66.2H1196.3L1196.3,317.4z"/>
				<path id="svg_9" class="st0" d="M1281.2,375.8c-8.9-1-16.2-2.1-22.4-3.6v-24c12,1,27.1,2.1,45.9,2.1c8.3,0,14.6-1,18.8-3.1
					c4.2-2.1,6.3-6.3,6.3-12v-5.7c0-4.7-1.6-7.8-4.2-10.4c-2.6-2.6-6.3-3.6-11.5-3.6h-13c-15.1,0-26.1-3.1-33.4-9.9
					c-7.3-6.3-10.9-17.2-10.9-31.8v-7.3c0-28.1,16.2-42.2,48.5-42.2c7.8,0,15.6,0.5,23.5,1.6c8.3,1,15.6,2.1,21.9,3.6v24
					c-18.8-1-32.3-2.1-42.2-2.1c-7.8,0-13.6,1-17.7,3.6c-4.2,2.6-5.7,6.8-5.7,13v4.2c0,5.2,1.6,8.9,4.2,11.5
					c3.1,2.6,7.3,3.6,13.6,3.6h14.6c13,0,22.9,3.6,29.7,10.4c6.8,7.3,10.4,16.7,10.4,28.1v8.3c0,11.5-2.1,20.3-6.3,26.6
					c-4.2,6.3-9.9,10.4-17.7,13c-7.8,2.6-17.2,3.6-28.1,3.6C1297.9,377.3,1289.6,376.8,1281.2,375.8L1281.2,375.8z"/>
				<path id="svg_10" class="st0" d="M1415.7,330.4l-45.3-104.8h31.3l29.7,74.5l29.7-74h30.2l-45.3,104.8v45.3h-30.2
					C1415.7,376.3,1415.7,330.4,1415.7,330.4z"/>
				<path id="svg_11" class="st1" d="M1524.6,371.6c-7.8-4.2-13.6-11.5-17.7-22.9c-4.2-10.9-6.3-27.1-6.3-47.9
					c0-19.8,2.1-35.4,6.3-46.9c4.2-10.9,10.4-18.8,18.2-22.9s17.7-6.3,30.2-6.3c9.4,0,17.7,0.5,26.1,2.1c8.3,1.6,15.1,3.1,20.8,5.2
					v23.5c-4.2-1-9.9-1.6-17.2-2.6c-7.3-0.5-15.1-1-23.5-1s-14.6,1-18.8,3.6c-4.2,2.6-7.3,7.3-9.4,14.1s-3.1,17.2-3.1,31.3
					s1,24,2.6,31.3c1.6,6.8,4.7,11.5,9.4,14.6c4.2,2.6,10.9,4.2,19.3,4.2c16.7,0,30.2-0.5,40.7-2.1v22.9c-12,4.2-27.6,5.7-47.4,5.7
					C1542.9,377.3,1532.4,375.2,1524.6,371.6z"/>
				<path id="svg_12" class="st1" d="M1623.6,225.7h62c13,0,24,3.6,31.3,10.4c7.8,7.3,11.5,19.8,11.5,37.5c0,12.5-2.1,21.9-6.3,28.1
					c-4.2,6.3-9.9,10.9-17.2,14.1l28.1,60.5h-30.7l-24-55.8c-6.3,0-14.6,0-24.5-0.5v56.3h-30.2L1623.6,225.7L1623.6,225.7z
					 M1680.4,296.5c5.7,0,10.4-1.6,13.6-5.2c3.1-3.1,4.7-8.9,4.7-17.2c0-7.8-1.6-13.6-4.7-16.7c-3.1-3.1-7.8-4.7-13.6-4.7h-26.6V296
					h26.6V296.5z"/>
				<path id="svg_13" class="st1" d="M1750.8,225.7h30.2v150.1h-30.2C1750.8,375.8,1750.8,225.7,1750.8,225.7z"/>
				<path id="svg_14" class="st1" d="M1838.4,252.8h-41.2v-27.1h112.6v27.1h-41.7v123.5h-30.2V252.8H1838.4z"/>
				<path id="svg_15" class="st1" d="M1926.4,225.7h30.2v150.1h-30.2C1926.4,375.8,1926.4,225.7,1926.4,225.7z"/>
				<path id="svg_16" class="st1" d="M2002.5,371.6c-7.8-4.2-13.6-11.5-17.7-22.9c-4.2-10.9-6.3-27.1-6.3-47.9
					c0-19.8,2.1-35.4,6.3-46.9c4.2-10.9,10.4-18.8,18.2-22.9s17.7-6.3,30.2-6.3c9.4,0,17.7,0.5,26.1,2.1c8.3,1.6,15.1,3.1,20.8,5.2
					v23.5c-4.2-1-9.9-1.6-17.2-2.6c-7.3-0.5-15.1-1-23.5-1c-8.3,0-14.6,1-18.8,3.6c-4.2,2.6-7.3,7.3-9.4,14.1
					c-2.1,6.8-3.1,17.2-3.1,31.3s1,24,2.6,31.3c1.6,6.8,4.7,11.5,9.4,14.6c4.7,3.1,10.9,4.2,19.3,4.2c16.7,0,30.2-0.5,40.7-2.1v22.9
					c-12,4.2-27.6,5.7-47.4,5.7C2020.2,377.3,2010.3,375.2,2002.5,371.6z"/>
				<path id="svg_17" class="st1" d="M2100.5,375.2c-0.5-0.5-1-1.6-1-3.1v-20.8c0-2.6,1.6-4.2,4.2-4.2h17.7c3.1,0,4.7,1.6,4.7,4.2
					v20.8c0,2.6-1.6,4.2-4.7,4.2h-17.7C2102.1,376.3,2101,375.8,2100.5,375.2z"/>
				<path id="svg_18" class="st1" d="M2158.9,367.9c-6.8-6.3-11.5-14.6-14.1-25.5c-2.6-10.9-4.2-25-4.2-41.2
					c0-17.2,1.6-31.3,4.7-42.2s8.3-19.3,16.7-25.5c7.8-5.7,19.3-8.9,34.4-8.9c9.4,0,18.2,0.5,26.1,1.6c7.8,1,16.2,2.6,25,5.2v22.9
					c-5.2-0.5-12-1.6-20.3-2.1c-8.3-0.5-16.7-1-25-1c-8.9,0-15.1,1.6-19.3,4.7c-4.2,3.1-7.3,7.8-8.9,15.1
					c-1.6,6.8-2.6,17.2-2.6,30.2c0,13,1,22.9,2.6,29.7c1.6,6.8,4.2,11.5,7.8,14.1s8.9,4.2,15.6,4.2c5.2,0,10.4-0.5,15.1-1
					c5.2-1,9.4-2.1,13-3.1v-29.2h-27.1v-24c4.2-0.5,9.4-1,16.2-1.6c6.8-0.5,13-0.5,18.8-0.5c8.3,0,15.6,0,21.4,0.5v85.5h-22.4
					l-4.2-9.9c-5.2,3.1-10.9,5.7-18.2,7.8c-7.3,2.1-14.6,3.1-22.4,3.1C2175,377.3,2165.7,374.2,2158.9,367.9L2158.9,367.9z"/>
				<path id="svg_19" class="st1" d="M2317.8,225.7h38l46.9,150.1h-31.3l-9.4-31.3h-51.1l-9.4,31.3h-31.3
					C2270.4,375.8,2317.8,225.7,2317.8,225.7z M2354.8,317.4l-18.2-66.2l-18.2,66.2H2354.8L2354.8,317.4z"/>
				<path id="svg_20" class="st1" d="M2547.7,376.3l-11.5-98.5l-26.1,98.5H2482l-26.1-96.9l-10.9,96.9h-29.2l17.7-150.1h28.7
					l34.4,115.2l34.4-115.2h28.7l17.7,150.1H2547.7z"/>
				<path id="svg_21" class="st1" d="M2605.5,370.6c-7.3-4.2-10.9-13-10.9-26.6v-83.9c0-12,3.1-20.8,9.9-26.1
					c6.8-5.2,14.6-7.8,24.5-7.8c20.8,0,42.2,1,65.1,2.6v25h-56.3c-8.9,0-13,4.2-13,12.5v21.9l59.4,1.6v24l-59.4,1.6v20.8
					c0,8.9,4.2,13.6,12.5,13.6h56.8v25c-18.2,2.1-39.1,3.1-62.5,3.1C2621.2,377.3,2612.8,374.7,2605.5,370.6L2605.5,370.6z"/>
				<path id="svg_22" class="st1" d="M2736.3,375.8c-8.9-1-16.2-2.1-22.4-3.6v-24c12,1,27.1,2.1,45.9,2.1c8.3,0,14.6-1,18.8-3.1
					c4.2-2.1,6.3-6.3,6.3-12v-5.7c0-4.7-1.6-7.8-4.2-10.4c-2.6-2.6-6.3-3.6-11.5-3.6h-13c-15.1,0-26.1-3.1-33.4-9.9
					c-7.3-6.3-10.9-17.2-10.9-31.8v-7.3c0-28.1,16.2-42.2,48.5-42.2c7.8,0,15.6,0.5,23.5,1.6c7.8,1,15.6,2.1,21.9,3.6v24
					c-18.8-1-32.3-2.1-42.2-2.1c-7.8,0-13.6,1-17.7,3.6c-4.2,2.6-5.7,6.8-5.7,13v4.2c0,5.2,1.6,8.9,4.2,11.5
					c3.1,2.6,7.3,3.6,13.6,3.6h14.6c13,0,22.9,3.6,29.7,10.4c6.8,7.3,10.4,16.7,10.4,28.1v8.3c0,11.5-2.1,20.3-6.3,26.6
					c-4.2,6.3-9.9,10.4-17.7,13c-7.8,2.6-17.2,3.6-28.1,3.6C2753.5,377.3,2745.2,376.8,2736.3,375.8L2736.3,375.8z"/>
			</g>
		</g>
	</g>
</g>
<g>
	<g>
		<g>
			<circle class="st2" cx="275.5" cy="234.7" r="202.3"/>
		</g>
		<g>
			<g>
				<g>
					<path class="st1" d="M541.9,256.7c-2.3-13.9-21.9-27.5-21.3-3.6c0.3,113.8-92.2,172.4-96.7,177.2
						c-20.1,21.7,24.1,87.7,76.6,19.5C572.9,355.6,543.2,264.8,541.9,256.7z M30.8,253c0.6-23.9-18.9-10.3-21.3,3.6
						c-1.4,8.1-31.1,99,41.4,193.1c52.4,68.1,96.7,2.2,76.6-19.5C123,425.4,30.5,366.8,30.8,253z"/>
				</g>
			</g>
			<g>
				<g>
					<g>
						<g>
							<path class="st3" d="M400.7,437.8c3.6-1.9,59.3-33.6,86.4-91.5c5.1-17.6,12,1.2,11.7,6.3c-0.2,3.9,1.5,42.1-23,82.6
								c-11.1,18.4-4.1,41.8-26.6,56.2C387.5,531,384.8,446.4,400.7,437.8z"/>
						</g>
					</g>
				</g>
				<g>
					<g>
						<g>
							<path class="st4" d="M420.4,504.1c-4.6,0-8.9-1-12.7-3.1c-12.8-7-17.4-24.4-17.4-38.3c0-13.1,3.7-23.6,9.4-26.7l0,0
								c2.4-1.3,58.2-32.2,85.5-90.5c0.6-2.1,2.7-9.3,7.6-8.5c5.4,0.9,8.4,12.3,8.2,15.8c0,0.3,0,0.8,0,1.5
								c-0.4,36.6-12.9,64.9-23.3,82.1c-4,6.7-5.5,13.9-7.1,21.6c-2.6,12.7-5.4,25.8-20.1,35.3C439,500.4,429,504.1,420.4,504.1z
								 M401.7,439.6c-4.1,2.3-7.1,11.9-7.1,23c0,12.7,4,28.5,15.2,34.6c9.5,5.2,22.3,2.6,38.3-7.6c13.2-8.5,15.7-20.2,18.2-32.6
								c1.6-7.7,3.3-15.7,7.7-23c10.1-16.8,22.3-44.2,22.7-79.9c0-0.8,0-1.3,0-1.7c0.2-3.4-3-11.2-4.6-11.4c0,0-1.3,0.5-2.9,5.8
								C461.1,406.7,404.1,438.3,401.7,439.6L401.7,439.6z"/>
						</g>
					</g>
				</g>
			</g>
			<g>
				<g>
					<g>
						<g>
							<path class="st3" d="M150.6,437.8c-3.6-1.9-59.3-33.6-86.4-91.5c-5.1-17.6-12,1.2-11.7,6.3c0.2,3.9-1.5,42.1,23,82.6
								c11.1,18.4,4.1,41.8,26.6,56.2C163.8,531,166.5,446.4,150.6,437.8z"/>
						</g>
					</g>
				</g>
				<g>
					<g>
						<g>
							<path class="st4" d="M130.9,504.1c-8.6,0-18.6-3.6-29.9-10.9c-14.7-9.5-17.5-22.6-20.1-35.3c-1.6-7.7-3.1-15-7.1-21.6
								c-10.4-17.2-22.9-45.5-23.3-82.1c0-0.7,0-1.2,0-1.5c-0.2-3.6,2.8-14.9,8.2-15.8c5-0.9,7,6.4,7.7,8.8
								c27.2,58,83,88.9,85.4,90.2l0,0c5.7,3.1,9.4,13.6,9.4,26.7c0,13.9-4.6,31.3-17.4,38.3C139.7,503,135.5,504.1,130.9,504.1z
								 M59.2,341.1c-1.6,0.2-4.8,8-4.6,11.4c0,0.3,0,0.9,0,1.7c0.4,35.7,12.6,63.2,22.7,79.9c4.4,7.3,6.1,15.3,7.7,23
								c2.6,12.4,5,24.1,18.2,32.6c15.9,10.2,28.8,12.8,38.3,7.6c11.2-6.1,15.2-21.9,15.2-34.6c0-11.1-3-20.7-7.1-23
								c-2.4-1.3-59.4-32.9-87.3-92.4C60.6,341.5,59.2,341.1,59.2,341.1z"/>
						</g>
					</g>
				</g>
			</g>
		</g>
		<g>
			<g>
				<path class="st1" d="M275.5,469.4c-62.7,0-121.6-24.4-165.9-68.7c-44.3-44.3-68.7-103.3-68.7-165.9
					c0-62.7,24.4-121.6,68.7-165.9C153.8,24.4,212.8,0,275.5,0s121.6,24.4,165.9,68.7c44.3,44.3,68.7,103.3,68.7,165.9
					c0,62.7-24.4,121.6-68.7,165.9C397.1,444.9,338.1,469.4,275.5,469.4z M275.5,14.7c-121.3,0-220,98.7-220,220
					c0,121.3,98.7,220,220,220c121.3,0,220-98.7,220-220C495.4,113.4,396.7,14.7,275.5,14.7z"/>
			</g>
		</g>
		<g>
			<path class="st3" d="M109.9,513.7c0,0,30.7-10.5,29.7-50.1h268c0,0-2.8,40.4,32.7,50.1H109.9z"/>
		</g>
		<g>
			<g>
				<path class="st1" d="M308.5,419.9c0,0-7.5-6.2-1.6-17.8c5.9-11.5,10.3-12.3,4.3-31.1c-1.1-3.4,1.7-1.6,2.9,0
					c1.2,1.6,13.3,15.6,11.4,26.8C323.6,409.1,321.8,413.4,308.5,419.9z"/>
			</g>
			<g>
				<path class="st1" d="M251.3,419.9c0,0,7.5-6.2,1.6-17.8c-5.9-11.5-10.3-12.3-4.3-31.1c1.1-3.4-1.7-1.6-2.9,0
					c-1.2,1.6-13.3,15.6-11.4,26.8S238,413.4,251.3,419.9z"/>
			</g>
			<g>
				<path class="st3" d="M283,301c-6.1,0.7-28.9,58.9-31.9,79.5c-0.1,11.9,14.3,20.3,7.1,34.4c-7.1,14.1,45.4,16.7,46.5,1.8
					c-11.2-12.7,5.9-23.5,4.6-35.6C307.9,369.1,289.1,300.3,283,301z"/>
			</g>
		</g>
		<g>
			<rect x="143.6" y="420.4" class="st3" width="268.8" height="21.5"/>
		</g>
		<g>
			<path class="st5" d="M419.3,465.7H137.7c-0.8,0-1.5-0.7-1.5-1.5v-25.7c0-0.8,0.7-1.5,1.5-1.5h281.5c0.8,0,1.5,0.7,1.5,1.5v25.7
				C420.7,465.1,420.1,465.7,419.3,465.7z"/>
		</g>
		<g>
			<path class="st6" d="M282,214.5h0.4C282.3,214.5,282.3,214.5,282,214.5C282.3,214.5,282.3,214.5,282,214.5z"/>
		</g>
		<g>
			<path class="st6" d="M419,189.4c-11-23.2-30.1-39.2-50.2-44.2l0,0H368c-8-1.9-16.4-1.9-24.4,0h-123c-8-1.9-16.4-1.9-24.4,0h-0.8
				l0,0c-19.8,4.9-38.8,20.9-49.9,44.2c-17.1,36.5-25.5,116.1,3.4,129.4c25.1,11.8,70.4-29.7,93.3-65.9h80.3
				c22.5,35.8,67.8,77.7,93.3,65.9C444.5,305.5,436.1,225.9,419,189.4z M187.6,182.9v-10.7h11h10.7v10.7v10.7l-10.7,12.9l-10.7-12.9
				v-10.7H187.6z M170.4,222.1h-11v-11v-10.7h11h10.7l12.9,10.7l-12.9,10.7h-10.7V222.1z M209.3,239.3v11h-10.7h-11v-11v-10.7
				l10.7-12.9l10.7,12.9v10.7H209.3z M237.4,211.1v11h-10.7h-10.7l-12.9-10.7l12.9-10.7h10.7h10.7V211.1z M271.7,237.4h-12.9
				c-2.3,0-4.2-1.9-4.2-4.2c0-2.3,1.9-4.2,4.2-4.2h12.9c2.3,0,4.2,1.9,4.2,4.2C275.9,235.5,274,237.4,271.7,237.4z M305.9,237.4H293
				c-2.3,0-4.2-1.9-4.2-4.2c0-2.3,1.9-4.2,4.2-4.2h12.9c2.3,0,4.2,1.9,4.2,4.2C310.5,235.5,308.6,237.4,305.9,237.4z M369.5,172.3
				c7.2,0,12.9,5.7,12.9,12.9c0,7.2-5.7,12.9-12.9,12.9s-12.9-5.7-12.9-12.9C356.6,178,362.7,172.3,369.5,172.3z M343.6,224
				c-7.2,0-12.9-5.7-12.9-12.9c0-7.2,5.7-12.9,12.9-12.9s12.9,5.7,12.9,12.9C356.6,218.3,350.9,224,343.6,224z M369.5,250.3
				c-7.2,0-12.9-5.7-12.9-12.9c0-7.2,5.7-12.9,12.9-12.9s12.9,5.7,12.9,12.9C382.5,244.2,376.8,250.3,369.5,250.3z M395.8,224
				c-7.2,0-12.9-5.7-12.9-12.9c0-7.2,5.7-12.9,12.9-12.9s12.9,5.7,12.9,12.9C408.7,218.3,402.6,224,395.8,224z"/>
		</g>
		<g>
			<path class="st1" d="M416.1,461.5H141.5c-0.6,0-1.2-0.5-1.2-1.2v-11c0-0.1,0-0.1,0.1-0.1h276.7c0.1,0,0.1,0,0.1,0.1v11
				C417.3,461,416.8,461.5,416.1,461.5z"/>
		</g>
		<g>
			<g>
				<path class="st1" d="M451.9,553v-3.5c-8.1,4.3-17,10.2-17.3,14.4c0,0.3-0.1,0.9,0.5,1.7h4.2C446.2,565.6,451.9,559.9,451.9,553z
					"/>
			</g>
			<g>
				<path class="st1" d="M124.4,563.7c0,0.6,0,1.2-0.2,1.9h307.5c-0.2-0.7-0.2-1.4-0.2-1.9c0.5-6.7,13.2-14.1,20.5-17.7v-20.9
					c0-0.2-0.2-0.4-0.4-0.4H106.1c-0.2,0-0.4,0.2-0.4,0.4v21.8C113,550.7,124,557.5,124.4,563.7z"/>
			</g>
			<g>
				<path class="st1" d="M121.2,563.9c-0.3-3.9-8-9.3-15.6-13.5v2.6c0,6.9,5.7,12.6,12.6,12.6h2.5
					C121.3,564.8,121.3,564.2,121.2,563.9z"/>
			</g>
		</g>
	</g>
</g>
</svg>
