<?xml version="1.0" standalone="no"?>
<!DOCTYPE svg PUBLIC "-//W3C//DTD SVG 20010904//EN"
 "http://www.w3.org/TR/2001/REC-SVG-20010904/DTD/svg10.dtd">
<svg version="1.0" xmlns="http://www.w3.org/2000/svg"
 width="2358.000000pt" height="2358.000000pt" viewBox="0 0 2358.000000 2358.000000"
 preserveAspectRatio="xMidYMid meet">
<metadata>
Created by potrace 1.11, written by Peter Selinger 2001-2013
</metadata>
<g transform="translate(0.000000,2358.000000) scale(0.100000,-0.100000)"
fill="#000000" stroke="none">
<path d="M11350 22999 c-36 -3 -119 -9 -185 -13 -66 -4 -210 -16 -320 -27
-2467 -245 -4699 -1449 -6286 -3389 -1240 -1516 -1953 -3361 -2069 -5355 -10
-172 -14 -858 -6 -920 3 -16 7 -88 11 -160 13 -277 53 -638 106 -957 250
-1525 870 -2943 1821 -4171 410 -529 940 -1073 1463 -1502 141 -116 476 -370
593 -449 71 -49 72 -50 72 -93 0 -24 -4 -43 -9 -43 -11 0 -313 208 -461 318
-832 617 -1548 1355 -2074 2135 -231 344 -482 797 -546 987 -63 186 -153 290
-252 290 -81 -1 -175 -81 -239 -205 -19 -36 -37 -65 -40 -65 -3 0 -38 66 -77
148 -438 913 -696 1895 -762 2902 -6 85 -13 281 -16 435 -3 184 -10 307 -20
360 -20 103 -66 190 -123 230 -60 42 -148 42 -241 0 -169 -77 -343 -282 -417
-490 -16 -46 -112 -453 -149 -630 -113 -548 -170 -1119 -171 -1700 -3 -1949
670 -3850 1943 -5485 430 -553 887 -923 1332 -1081 l87 -31 55 -90 c134 -219
306 -382 584 -551 287 -174 617 -313 809 -342 26 -4 49 -11 52 -15 8 -12 -191
-178 -295 -246 -52 -34 -136 -83 -185 -108 l-90 -45 6515 0 6515 0 -95 34
c-127 47 -265 114 -364 178 -88 58 -206 153 -206 166 0 5 35 11 77 15 96 9
308 63 432 110 223 86 535 258 716 396 154 117 290 269 387 432 38 65 42 68
106 89 478 157 968 568 1459 1224 1561 2086 2152 4524 1687 6960 -31 159 -139
632 -161 700 -93 293 -382 564 -578 541 -69 -8 -121 -47 -161 -121 -50 -93
-62 -178 -69 -515 -13 -649 -80 -1187 -221 -1770 -126 -526 -353 -1149 -585
-1612 l-51 -102 -40 77 c-88 169 -196 238 -301 193 -70 -30 -142 -131 -186
-262 -45 -134 -179 -394 -359 -694 -449 -751 -1097 -1491 -1852 -2116 -140
-115 -202 -165 -340 -270 -91 -70 -348 -254 -355 -254 -3 0 -5 24 -5 53 l0 52
102 74 c513 376 1120 942 1548 1446 682 801 1207 1675 1585 2635 594 1507 780
3187 534 4815 -181 1197 -598 2352 -1222 3385 -1022 1690 -2570 3030 -4377
3787 -903 378 -1882 615 -2845 688 -115 9 -257 19 -315 24 -125 10 -778 10
-870 0z m870 -583 c214 -13 276 -18 300 -21 14 -2 63 -7 110 -10 47 -3 92 -7
100 -10 8 -2 44 -7 80 -10 64 -6 80 -8 150 -19 19 -3 55 -7 79 -10 41 -5 320
-51 366 -61 627 -126 1101 -266 1649 -486 82 -33 167 -69 190 -79 233 -106
312 -143 441 -207 180 -91 475 -254 604 -334 51 -33 95 -59 97 -59 3 0 17 -9
32 -19 15 -10 103 -69 197 -131 199 -132 425 -297 595 -433 44 -35 228 -188
250 -207 226 -197 264 -233 490 -460 310 -310 433 -449 743 -840 47 -59 197
-265 263 -360 83 -120 287 -436 320 -495 6 -11 20 -36 32 -55 50 -84 272 -489
272 -497 0 -2 31 -67 69 -146 107 -221 210 -460 286 -662 20 -55 41 -109 45
-120 65 -149 263 -817 296 -995 3 -14 11 -50 19 -80 8 -30 16 -67 19 -83 3
-15 7 -35 10 -45 3 -9 8 -31 10 -47 2 -17 15 -91 29 -165 22 -119 30 -160 43
-245 4 -28 20 -144 29 -215 2 -14 6 -43 9 -65 3 -22 8 -67 11 -100 3 -33 8
-78 10 -100 41 -353 51 -1097 20 -1450 -2 -22 -6 -74 -10 -115 -23 -270 -39
-403 -80 -665 -18 -113 -22 -132 -42 -230 -8 -44 -16 -87 -17 -95 -4 -27 -17
-93 -38 -180 -11 -47 -21 -92 -23 -100 -43 -212 -172 -646 -288 -970 -180
-503 -471 -1109 -755 -1570 -67 -110 -243 -381 -252 -390 -3 -3 -19 -25 -35
-50 -17 -25 -33 -49 -38 -55 -4 -5 -52 -71 -107 -145 -54 -74 -103 -139 -107
-145 -5 -5 -33 -41 -63 -80 -49 -63 -249 -303 -275 -331 -5 -6 -41 -46 -80
-89 -205 -229 -513 -535 -715 -711 -24 -21 -60 -53 -80 -71 -239 -216 -932
-727 -1031 -761 -26 -8 -1445 -9 -1454 0 -3 3 43 27 102 53 308 136 755 381
1037 567 48 32 92 58 96 58 5 0 10 3 12 8 2 4 39 31 83 61 181 123 428 311
599 455 79 67 141 121 255 221 84 74 465 457 558 560 369 410 713 881 982
1345 267 458 494 957 660 1445 37 108 96 296 106 335 2 8 16 56 30 105 14 50
27 99 30 110 2 11 6 31 9 44 3 13 12 47 20 75 23 82 90 397 111 524 3 17 7 47
10 65 3 17 10 57 15 87 5 30 12 75 15 100 6 51 14 113 20 150 2 14 7 52 10 85
3 33 8 74 10 90 2 17 7 75 10 130 4 55 9 108 11 118 23 124 22 946 -1 1152 -3
22 -7 74 -10 115 -10 139 -42 408 -65 540 -5 30 -11 69 -13 85 -37 249 -139
692 -224 970 -14 44 -26 85 -27 90 -12 49 -147 438 -181 520 -9 22 -20 49 -24
60 -170 415 -362 806 -559 1135 -91 152 -269 428 -294 454 -10 11 -18 23 -18
28 0 4 -7 16 -15 25 -8 10 -44 59 -80 108 -35 50 -73 101 -82 114 -178 243
-462 569 -738 845 -130 130 -185 183 -320 306 -64 59 -299 257 -347 292 -20
15 -42 33 -50 40 -26 26 -176 137 -313 234 -266 188 -551 368 -775 487 -41 22
-79 43 -85 47 -55 42 -666 326 -825 385 -19 7 -73 27 -120 45 -423 159 -994
320 -1335 375 -16 3 -52 10 -80 15 -27 5 -66 12 -85 15 -19 3 -46 8 -60 10
-72 12 -92 15 -170 25 -47 6 -96 13 -110 15 -14 2 -50 7 -80 10 -30 3 -75 7
-100 10 -25 3 -74 7 -110 11 -36 3 -81 7 -100 9 -253 24 -980 24 -1200 0 -19
-2 -75 -6 -125 -10 -49 -4 -99 -9 -110 -10 -11 -2 -51 -6 -88 -10 -37 -3 -76
-8 -85 -10 -9 -1 -46 -6 -82 -10 -36 -4 -67 -8 -70 -10 -3 -2 -27 -6 -55 -9
-27 -4 -72 -11 -100 -16 -27 -5 -66 -11 -85 -14 -19 -3 -84 -15 -145 -27 -150
-29 -145 -28 -163 -33 -9 -3 -28 -7 -42 -10 -14 -2 -56 -12 -95 -21 -38 -9
-77 -18 -85 -20 -32 -7 -151 -38 -270 -71 -563 -158 -1170 -408 -1668 -685
-58 -33 -107 -59 -108 -59 -7 0 -302 -181 -419 -258 -153 -99 -503 -347 -525
-372 -3 -3 -36 -30 -75 -60 -38 -30 -86 -68 -106 -85 -19 -16 -49 -41 -65 -54
-379 -315 -809 -756 -1113 -1141 -46 -58 -90 -114 -100 -125 -97 -118 -386
-540 -496 -726 -449 -757 -752 -1496 -941 -2292 -38 -161 -39 -165 -54 -242
-5 -27 -12 -61 -15 -75 -23 -106 -71 -413 -90 -580 -21 -181 -23 -191 -30
-295 -4 -49 -8 -106 -10 -125 -7 -69 -18 -408 -18 -555 0 -198 13 -512 28
-675 4 -41 8 -91 10 -110 4 -55 37 -321 51 -410 33 -221 120 -652 159 -783 8
-26 14 -51 15 -55 0 -4 3 -16 5 -27 55 -210 174 -577 263 -810 150 -394 398
-903 605 -1240 97 -158 193 -308 254 -398 75 -110 202 -287 213 -297 3 -3 32
-41 65 -85 62 -82 288 -355 359 -435 23 -24 66 -71 96 -105 88 -96 397 -403
499 -495 52 -47 102 -92 111 -101 21 -19 226 -189 295 -244 28 -22 52 -42 55
-45 3 -3 50 -39 105 -81 226 -171 571 -402 760 -509 17 -9 75 -43 130 -75 168
-98 651 -338 723 -360 12 -3 22 -9 22 -13 0 -4 -331 -7 -734 -6 l-735 0 -148
98 c-421 280 -826 603 -1186 946 -73 70 -324 322 -362 364 -6 6 -37 40 -70 76
-113 123 -184 205 -290 335 -59 72 -115 139 -124 151 -51 60 -281 374 -281
382 0 6 -4 12 -9 14 -8 3 -217 313 -267 395 -205 341 -271 459 -403 723 -237
473 -445 1009 -583 1495 -30 106 -108 414 -118 465 -5 25 -20 97 -34 160 -22
104 -45 227 -62 334 -3 21 -7 48 -10 60 -9 47 -35 234 -39 280 -3 28 -7 57 -9
65 -3 9 -7 51 -11 93 -4 43 -8 90 -10 105 -2 16 -6 71 -10 123 -4 52 -9 113
-11 135 -25 291 -20 926 11 1271 10 120 12 143 20 219 4 39 9 84 10 100 1 17
5 48 9 70 3 22 8 60 11 85 4 25 8 59 11 75 3 17 7 44 10 60 2 17 6 41 9 55 2
14 7 43 10 65 3 23 7 52 10 65 3 14 10 52 15 85 6 33 15 80 20 105 5 25 12 56
14 70 14 84 112 487 146 600 11 36 31 106 46 155 14 50 51 162 80 250 30 88
56 165 58 170 15 50 133 348 186 475 186 439 459 954 688 1300 21 30 42 63 47
72 40 67 151 224 293 418 64 86 222 288 267 341 16 19 46 55 67 80 217 264
583 639 902 923 12 10 59 51 106 90 47 39 91 77 99 84 84 80 463 364 690 517
145 98 456 295 466 295 1 0 54 30 116 66 372 217 918 467 1373 628 240 86 672
215 836 251 8 2 56 13 105 25 50 12 99 24 110 26 11 2 43 8 70 14 63 13 81 16
185 36 47 9 94 18 105 20 31 7 195 32 245 39 25 3 56 8 70 10 14 2 49 7 79 10
30 4 61 8 70 10 9 1 50 6 91 10 41 4 86 9 100 10 14 2 63 6 110 10 47 3 101 8
120 10 19 2 105 7 190 10 85 4 156 8 157 9 5 5 624 -2 713 -8z"/>
<path d="M5050 1761 l0 -439 63 -32 c34 -18 109 -62 167 -98 338 -208 510
-395 510 -554 l0 -58 6088 0 6089 0 0 58 c0 73 26 133 95 219 101 127 329 296
591 437 l127 68 -2 417 -3 416 -6862 3 -6863 2 0 -439z"/>
<path d="M18730 1188 c-19 -12 -84 -50 -145 -86 -209 -123 -380 -261 -448
-360 -30 -43 -43 -96 -33 -136 6 -26 7 -26 114 -26 184 0 309 45 412 149 69
68 125 178 140 271 12 76 13 210 3 209 -5 0 -24 -10 -43 -21z"/>
<path d="M5050 1092 c0 -139 42 -248 133 -348 93 -102 202 -152 356 -161 84
-5 95 -4 107 12 69 94 -124 300 -479 511 -59 35 -109 64 -112 64 -3 0 -5 -35
-5 -78z"/>
</g>
</svg>
