<svg width="767" height="665" xmlns="http://www.w3.org/2000/svg">
 <style type="text/css">.st0{fill:#D5993B;}
	.st1{fill-rule:evenodd;clip-rule:evenodd;fill:#D5993B;}</style>

 <g>
  <title>background</title>
  <rect fill="none" id="canvas_background" height="667" width="769" y="-1" x="-1"/>
 </g>
 <g>
  <title>Layer 1</title>
  <g id="Layer_2">
   <g id="svg_1">
    <g id="svg_2">
     <path id="svg_3" d="m642.98,642.19c0,0 -3.3,-58.03 -21.68,-77.77l-488.43,-487.92c11.15,-4.98 -59.69,61.94 -56.89,55.61l490.32,489.8c19.77,18.3 76.68,20.28 76.68,20.28z" class="st0"/>
     <path id="svg_4" d="m648.1,647.19l-5.29,-0.18c-2.4,-0.08 -58.95,-2.26 -79.79,-21.56l-0.13,-0.13l-488.86,-488.34c-0.26,-0.14 -0.53,-0.3 -0.8,-0.49c-1.65,-1.13 -2.87,-3.59 -1.66,-6.34l2.84,-6.45l2.47,2.47c10.02,-8.09 41.57,-37.91 50.5,-48.35l-2.88,-2.88l6.41,-2.86c4.4,-1.97 6.68,0.91 7.09,1.51c0.48,0.7 0.8,1.38 0.92,2.11l485.85,485.35l0.06,0.06c19.34,20.77 22.83,78.34 22.97,80.78l0.3,5.3zm-78.46,-28.76c14.86,13.66 53.74,17.61 68.08,18.62c-1.32,-14.55 -6.12,-54.37 -19.91,-69.28l-483.61,-483.11c-2.55,2.97 -6.26,6.82 -11.42,12c-8.14,8.18 -18.76,18.31 -27.71,26.45c-4.92,4.47 -8.55,7.7 -11.32,9.95l485.89,485.37z" class="st0"/>
    </g>
    <path id="svg_5" d="m82.04,57.85l-45.96,-36.32c0.19,-1.06 0.31,-2.16 0.31,-3.28c0,-10.07 -8.16,-18.24 -18.24,-18.24s-18.24,8.16 -18.24,18.24c0,10.07 8.16,18.24 18.24,18.24c1.15,0 2.28,-0.12 3.37,-0.32l36.47,45.82l24.05,-24.14z" class="st0"/>
    <g id="svg_6">
     <polyline id="svg_7" points="112.22000122070312,115.57000732421875 116.1199951171875,111.66000366210938 637.4000244140625,632.9400024414062 637.7999877929688,636.969970703125 633.4500122070312,636.7999877929688 " class="st0"/>
    </g>
    <g id="svg_8">
     <path id="svg_9" d="m76.65,131.1c-0.44,3.27 -21.47,53.89 11.36,100.44c7.13,9.6 -4.81,9.65 -9.76,4.63c-2.89,-2.94 -41.2,-31.61 -38.6,-91.05c1.89,-43.01 38.97,-28.71 37,-14.02z" class="st1"/>
     <g id="svg_10">
      <g id="svg_11">
       <path id="svg_12" d="m86.82,129.77c-0.9,1.82 -14.64,30.82 -9.1,62.33c2.95,8.69 -5.27,2.94 -6.61,0.79c-1.02,-1.64 -12.7,-16.82 -14.31,-40.46c-0.73,-10.73 -10.35,-18.29 -5.28,-30.69c13.89,-33.98 39.33,-0.12 35.3,8.03z" class="st1"/>
      </g>
      <g id="svg_13">
       <g id="svg_14">
        <path id="svg_15" d="m59.67,108.26c1.9,-1.33 3.93,-2.12 6.09,-2.36c7.28,-0.82 14.16,5 18.16,10.71c3.77,5.38 5.28,10.74 3.85,13.64l0,0c-0.6,1.21 -14.58,29.95 -9,61.67c0.36,1.02 1.58,4.6 -0.66,5.68c-2.46,1.16 -6.96,-2.62 -7.9,-4.14c-0.08,-0.12 -0.22,-0.33 -0.41,-0.61c-10.38,-15.13 -13.37,-30.29 -14.06,-40.34c-0.27,-3.88 -1.74,-7.3 -3.3,-10.92c-2.57,-5.97 -5.22,-12.13 -1.91,-20.25c2.54,-6.22 5.6,-10.59 9.14,-13.08zm26.19,21.04c1.04,-2.11 -0.5,-6.93 -3.68,-11.46c-3.66,-5.21 -9.82,-10.53 -16.18,-9.81c-5.37,0.6 -9.91,5.35 -13.49,14.12c-2.98,7.29 -0.61,12.78 1.89,18.6c1.56,3.62 3.17,7.37 3.46,11.62c0.67,9.79 3.59,24.55 13.69,39.28c0.22,0.32 0.38,0.56 0.47,0.7c0.9,1.46 4.43,3.73 5.18,3.33c0,0 0.41,-0.57 -0.49,-3.22c-5.74,-32.58 8.53,-61.92 9.15,-63.16l0,0z" class="st0"/>
       </g>
      </g>
     </g>
    </g>
    <g id="svg_16">
     <path id="svg_17" d="m147.64,37.13c59.43,-2.61 88.11,35.71 91.05,38.6c5.03,4.95 4.97,16.89 -4.63,9.76c-46.54,-32.83 -97.16,-11.8 -100.44,-11.36c-14.69,1.97 -28.99,-35.11 14.02,-37z" class="st1"/>
     <g id="svg_18">
      <g id="svg_19">
       <path id="svg_20" d="m124.26,49c12.4,-5.07 19.97,4.55 30.69,5.28c23.64,1.61 38.82,13.3 40.46,14.31c2.15,1.33 7.9,9.56 -0.79,6.61c-31.52,-5.54 -60.52,8.2 -62.33,9.1c-8.14,4.03 -42.01,-21.41 -8.03,-35.3z" class="st1"/>
      </g>
      <g id="svg_21">
       <g id="svg_22">
        <path id="svg_23" d="m123.85,48.01c8.11,-3.32 14.28,-0.66 20.25,1.91c3.62,1.56 7.04,3.03 10.92,3.3c10.05,0.69 25.21,3.68 40.34,14.06c0.28,0.19 0.49,0.33 0.61,0.41c1.52,0.94 5.3,5.44 4.14,7.9c-1.07,2.25 -4.65,1.02 -5.68,0.66c-31.72,-5.58 -60.46,8.4 -61.67,9l0,0c-2.9,1.44 -8.26,-0.07 -13.64,-3.85c-5.71,-4.01 -11.52,-10.88 -10.71,-18.16c0.24,-2.16 1.03,-4.2 2.36,-6.09c2.5,-3.54 6.87,-6.6 13.08,-9.14zm7.97,35.33c1.24,-0.61 30.59,-14.89 63.15,-9.15c2.65,0.9 3.22,0.48 3.22,0.49c0.4,-0.74 -1.88,-4.27 -3.33,-5.18c-0.14,-0.09 -0.37,-0.24 -0.7,-0.47c-14.73,-10.1 -29.49,-13.02 -39.28,-13.69c-4.25,-0.29 -8,-1.9 -11.62,-3.46c-5.82,-2.5 -11.31,-4.87 -18.6,-1.89c-8.77,3.58 -13.51,8.12 -14.12,13.49c-0.71,6.35 4.6,12.52 9.81,16.18c4.54,3.17 9.36,4.72 11.47,3.68l0,0z" class="st0"/>
       </g>
      </g>
     </g>
    </g>
    <g id="svg_24">
     <g id="svg_25">
      <path id="svg_26" d="m108.11,120.96c0,0 3.68,-0.33 5.21,4.35c1.53,4.68 0.53,6.06 7.21,9.5c1.19,0.62 -0.02,0.88 -0.77,0.77s-7.78,-0.62 -10.29,-4.14s-3.18,-5.14 -1.36,-10.48z" class="st0"/>
      <path id="svg_27" d="m123.49,105.58c0,0 -0.33,3.68 4.35,5.21s6.06,0.53 9.5,7.21c0.62,1.19 0.88,-0.02 0.77,-0.77c-0.11,-0.75 -0.62,-7.78 -4.14,-10.29c-3.5,-2.5 -5.14,-3.18 -10.48,-1.36z" class="st0"/>
      <path id="svg_28" d="m146.96,146.06c1.45,-1.84 -8.06,-23.59 -12.81,-29.95c-3.17,-3.21 -9.31,-1.64 -11.17,-7.34c-1.87,-5.7 -16.7,7.71 -13.01,12.02c6.41,0.41 4.73,7.92 8.34,10.82c3.65,2.84 27.2,16.29 28.65,14.45z" class="st1"/>
     </g>
    </g>
    <path id="svg_29" d="m149.76,78.43l0,0c-0.85,0.35 -1.63,0.86 -2.28,1.52l-68.66,68.65c-0.64,0.64 -1.14,1.39 -1.49,2.22l-0.1,0.25c-2.25,5.36 -9.71,5.73 -12.48,0.62l-23.21,-42.88c-1.46,-2.7 -0.97,-6.03 1.19,-8.2c0,0 5.92,-14.2 24.2,-32.48s33.1,-24.82 33.1,-24.82c2.2,-2.2 5.59,-2.66 8.3,-1.14l42.21,23.8c5.05,2.85 4.58,10.27 -0.78,12.46z" class="st0"/>
   </g>
   <g id="svg_30">
    <g id="svg_31">
     <path id="svg_32" d="m200.86,621.91l490.32,-489.79c2.79,6.34 -68.04,-60.58 -56.89,-55.61l-488.43,487.91c-18.38,19.74 -21.68,77.77 -21.68,77.77s56.91,-1.98 76.68,-20.28z" class="st0"/>
     <path id="svg_33" d="m119.36,641.91c0.14,-2.44 3.63,-60.01 22.97,-80.78l0.06,-0.06l485.85,-485.35c0.12,-0.74 0.44,-1.42 0.92,-2.11c0.41,-0.6 2.69,-3.47 7.09,-1.51l6.41,2.86l-2.88,2.88c8.92,10.44 40.48,40.26 50.5,48.35l2.47,-2.47l2.84,6.45c1.21,2.75 -0.01,5.21 -1.66,6.34c-0.27,0.19 -0.54,0.35 -0.8,0.49l-488.86,488.32l-0.13,0.13c-20.85,19.3 -77.39,21.48 -79.79,21.56l-5.29,0.18l0.3,-5.28zm564.04,-508.86c-2.77,-2.25 -6.4,-5.47 -11.32,-9.95c-8.95,-8.14 -19.57,-18.27 -27.71,-26.45c-5.16,-5.19 -8.87,-9.03 -11.42,-12l-483.61,483.12c-13.79,14.9 -18.59,54.73 -19.91,69.28c14.35,-1.01 53.23,-4.96 68.08,-18.62l485.89,-485.38z" class="st0"/>
    </g>
    <path id="svg_34" d="m685.12,57.85l45.96,-36.32c-0.19,-1.06 -0.31,-2.16 -0.31,-3.28c0,-10.07 8.16,-18.24 18.24,-18.24c10.07,0 18.24,8.16 18.24,18.24c0,10.07 -8.16,18.24 -18.24,18.24c-1.15,0 -2.28,-0.12 -3.37,-0.32l-36.47,45.82l-24.05,-24.14z" class="st0"/>
    <g id="svg_35">
     <polyline id="svg_36" points="654.9299926757812,115.57000732421875 651.030029296875,111.66000366210938 129.75999450683594,632.9400024414062 129.35000610351562,636.969970703125 133.6999969482422,636.7999877929688 " class="st0"/>
    </g>
    <g id="svg_37">
     <path id="svg_38" d="m727.51,145.12c2.61,59.43 -35.71,88.11 -38.6,91.05c-4.95,5.03 -16.89,4.97 -9.76,-4.63c32.83,-46.54 11.8,-97.16 11.36,-100.44c-1.98,-14.69 35.11,-28.99 37,14.02z" class="st1"/>
     <g id="svg_39">
      <g id="svg_40">
       <path id="svg_41" d="m715.64,121.74c5.07,12.4 -4.55,19.97 -5.28,30.69c-1.61,23.64 -13.3,38.82 -14.31,40.46c-1.33,2.15 -9.56,7.9 -6.61,-0.79c5.54,-31.52 -8.2,-60.52 -9.1,-62.33c-4.03,-8.15 21.41,-42.01 35.3,-8.03z" class="st1"/>
      </g>
      <g id="svg_42">
       <g id="svg_43">
        <path id="svg_44" d="m716.62,121.33c3.32,8.11 0.66,14.28 -1.91,20.25c-1.56,3.62 -3.03,7.04 -3.3,10.92c-0.69,10.05 -3.68,25.21 -14.06,40.34c-0.19,0.28 -0.33,0.49 -0.41,0.61c-0.94,1.52 -5.44,5.3 -7.9,4.14c-2.25,-1.07 -1.02,-4.65 -0.66,-5.68c5.58,-31.72 -8.4,-60.46 -9,-61.67l0,0c-1.44,-2.9 0.07,-8.26 3.85,-13.64c4.01,-5.71 10.88,-11.52 18.16,-10.71c2.16,0.24 4.2,1.03 6.09,2.36c3.54,2.5 6.6,6.87 9.14,13.08zm-35.32,7.97c0.61,1.24 14.89,30.59 9.15,63.15c-0.9,2.65 -0.48,3.22 -0.49,3.22c0.74,0.4 4.27,-1.88 5.18,-3.33c0.09,-0.14 0.24,-0.37 0.47,-0.7c10.1,-14.73 13.02,-29.49 13.69,-39.28c0.29,-4.25 1.9,-8 3.46,-11.62c2.5,-5.82 4.87,-11.31 1.89,-18.6c-3.58,-8.77 -8.12,-13.51 -13.49,-14.12c-6.35,-0.71 -12.52,4.6 -16.18,9.81c-3.18,4.54 -4.73,9.36 -3.68,11.47l0,0z" class="st0"/>
       </g>
      </g>
     </g>
    </g>
    <g id="svg_45">
     <path id="svg_46" d="m633.54,74.13c-3.27,-0.44 -53.89,-21.47 -100.44,11.36c-9.6,7.13 -9.65,-4.81 -4.63,-9.76c2.94,-2.89 31.61,-41.2 91.05,-38.6c43.01,1.89 28.71,38.97 14.02,37z" class="st1"/>
     <g id="svg_47">
      <g id="svg_48">
       <path id="svg_49" d="m634.86,84.29c-1.82,-0.9 -30.82,-14.64 -62.33,-9.1c-8.69,2.95 -2.94,-5.27 -0.79,-6.61c1.64,-1.02 16.82,-12.7 40.46,-14.31c10.73,-0.73 18.29,-10.35 30.69,-5.28c33.99,13.9 0.12,39.34 -8.03,35.3z" class="st1"/>
      </g>
      <g id="svg_50">
       <g id="svg_51">
        <path id="svg_52" d="m656.37,57.15c1.33,1.9 2.12,3.93 2.36,6.09c0.82,7.28 -5,14.16 -10.71,18.16c-5.38,3.77 -10.74,5.28 -13.64,3.85l0,0c-1.21,-0.6 -29.95,-14.58 -61.67,-9c-1.02,0.36 -4.6,1.58 -5.68,-0.66c-1.16,-2.46 2.62,-6.96 4.14,-7.9c0.12,-0.08 0.33,-0.22 0.61,-0.41c15.13,-10.38 30.29,-13.37 40.34,-14.06c3.88,-0.27 7.3,-1.74 10.92,-3.3c5.97,-2.57 12.13,-5.22 20.25,-1.91c6.23,2.54 10.6,5.6 13.08,9.14zm-21.03,26.19c2.11,1.04 6.93,-0.5 11.46,-3.68c5.21,-3.66 10.53,-9.82 9.81,-16.18c-0.6,-5.37 -5.35,-9.91 -14.12,-13.49c-7.29,-2.98 -12.78,-0.61 -18.6,1.89c-3.62,1.56 -7.37,3.17 -11.62,3.46c-9.79,0.67 -24.55,3.59 -39.28,13.69c-0.32,0.22 -0.56,0.38 -0.7,0.47c-1.46,0.9 -3.73,4.43 -3.33,5.18c0,0 0.57,0.41 3.22,-0.49c32.57,-5.74 61.92,8.53 63.16,9.15l0,0z" class="st0"/>
       </g>
      </g>
     </g>
    </g>
    <g id="svg_53">
     <g id="svg_54">
      <path id="svg_55" d="m659.04,120.96c0,0 -3.68,-0.33 -5.21,4.35c-1.53,4.68 -0.53,6.06 -7.21,9.5c-1.19,0.62 0.02,0.88 0.77,0.77s7.78,-0.62 10.29,-4.14c2.5,-3.5 3.18,-5.14 1.36,-10.48z" class="st0"/>
      <path id="svg_56" d="m643.67,105.58c0,0 0.33,3.68 -4.35,5.21s-6.06,0.53 -9.5,7.21c-0.62,1.19 -0.88,-0.02 -0.77,-0.77c0.11,-0.75 0.62,-7.78 4.14,-10.29c3.5,-2.5 5.13,-3.18 10.48,-1.36z" class="st0"/>
      <path id="svg_57" d="m648.84,131.62c3.61,-2.9 1.93,-10.41 8.34,-10.82c3.69,-4.31 -11.14,-17.73 -13.01,-12.02c-1.87,5.7 -8,4.13 -11.17,7.34c-4.75,6.35 -14.26,28.11 -12.81,29.95c1.46,1.83 25.01,-11.62 28.65,-14.45z" class="st1"/>
     </g>
    </g>
    <path id="svg_58" d="m617.4,78.43l0,0c0.85,0.35 1.63,0.86 2.28,1.52l68.66,68.66c0.64,0.64 1.14,1.39 1.49,2.22l0.1,0.25c2.25,5.36 9.71,5.73 12.48,0.62l23.21,-42.88c1.46,-2.7 0.97,-6.03 -1.19,-8.2c0,0 -5.92,-14.2 -24.2,-32.48c-18.28,-18.28 -33.1,-24.82 -33.1,-24.82c-2.2,-2.2 -5.59,-2.66 -8.3,-1.14l-42.21,23.8c-5.05,2.84 -4.58,10.26 0.78,12.45z" class="st0"/>
   </g>
  </g>
  <g id="Layer_1">
   <g id="svg_59">
    <path id="svg_60" d="m133.46,358.72c40.01,170.43 136.82,242.44 249.64,307.25c112.82,-64.81 209.63,-136.82 250.44,-307.25l0,-228.04l-250.44,-48.01l-249.64,48.01l0,228.04z" class="st1"/>
   </g>
  </g>
 </g>
</svg>