<svg width="50" height="13" xmlns="http://www.w3.org/2000/svg">
 <!-- Created with Method Draw - http://github.com/duopixel/Method-Draw/ -->

 <g>
  <title>background</title>
  <rect fill="none" id="canvas_background" height="15" width="52" y="-1" x="-1"/>
  <g display="none" overflow="visible" y="0" x="0" height="100%" width="100%" id="canvasGrid">
   <rect fill="url(#gridpattern)" stroke-width="0" y="0" x="0" height="100%" width="100%"/>
  </g>
 </g>
 <g>
  <title>Layer 1</title>
  <g stroke="null" id="svg_21">
   <g stroke="null" transform="matrix(0.06711431114133116,0,0,0.06711431114133116,9.003418773864997e-7,0.0000014574870059135854) " id="svg_5">
    <g stroke="null" id="svg_6">
     <path fill="#ffffff" stroke="null" id="svg_7" d="m72.435107,106.727706c-13.22,2.31 -25.78,3.9 -38.95,4.14c-12.49,0.22 -21.75,-1.67 -26.95,-5.01c-5.2,-3.34 -7.38,-9.07 -6.24,-16.8c1.75,-11.93 7.59,-23.38 13,-33.91c7.93,-15.44 17.43,-32.56 31.46,-43.38c11.03,-8.51 26.29,-11.88 40.19,-11.7c6.94,0.09 14.85,1.06 23.6,3.18c1.88,0.45 2.82,0.67 4.71,1.11c-4.08,9.5 -8.18,19 -12.29,28.5c-8,-1.06 -15.52,-1.59 -22.64,-1.59c-7.12,0 -12.33,1.41 -15.67,4.22c-3.34,2.81 -7.06,8.62 -11.11,17.43c-4.05,8.81 -6.35,14.92 -6.88,18.31c-0.52,3.4 0.12,5.65 1.91,6.77c1.8,1.11 5.29,1.67 10.45,1.67c10.45,-0.38 15.66,-0.57 26.08,-0.96c-3.55,9.34 -7.11,18.68 -10.67,28.02z"/>
     <path fill="#ffffff" stroke="null" id="svg_8" d="m168.945107,81.257706c-3.76,0 -5.65,0 -9.41,0c-2.68,9.18 -5.36,18.36 -8.04,27.54c-13.26,0 -26.51,0 -39.77,0c12.27,-35.56 24.54,-71.11 36.8,-106.67c13.81,0 27.63,0 41.44,0c10.29,-0.21 23.52,0.85 30.74,8.2c7.14,7.27 5.52,21 3.47,30.41c-2.62,12.02 -8.23,24.51 -18.86,31.76c0.79,12.11 1.77,24.22 2.93,36.3c-13.49,0 -26.97,0 -40.46,0c0.37,-11.01 0.6,-16.52 1.16,-27.54zm7.96,-29.13c5.17,0 8.69,-3.47 10.55,-10.43c1.86,-6.95 -0.03,-10.43 -5.66,-10.43c-3.13,0 -4.7,0 -7.84,0c-2.44,8.34 -3.65,12.51 -6.09,20.86c3.62,0 5.43,0 9.04,0z"/>
     <path fill="#ffffff" stroke="null" id="svg_9" d="m250.065107,108.797706c5.68,-35.56 11.36,-71.11 17.04,-106.67c11.36,0 22.73,0 34.09,0c-3.79,35.56 -7.57,71.11 -11.36,106.67c-13.25,0 -26.51,0 -39.77,0z"/>
     <path fill="#ffffff" stroke="null" id="svg_10" d="m333.225107,32.217706c0.54,-10.03 1.08,-20.06 1.62,-30.09c24.49,0 48.98,0 73.47,0c0.61,10.03 1.22,20.06 1.83,30.09c-8,0 -12,0 -20,0c0.79,25.53 1.58,51.05 2.37,76.58c-13.26,0 -26.51,0 -39.77,0c0.57,-25.53 1.14,-51.05 1.71,-76.58c-8.49,0 -12.73,0 -21.23,0z"/>
     <path fill="#ffffff" stroke="null" id="svg_11" d="m454.245107,108.797706c-4.04,-35.56 -8.08,-71.11 -12.12,-106.67c11.36,0 22.73,0 34.09,0c5.93,35.56 11.87,71.11 17.8,106.67c-13.26,0 -26.51,0 -39.77,0z"/>
     <path fill="#ffffff" stroke="null" id="svg_12" d="m620.005107,106.727706c-12.25,2.46 -23.93,4.2 -35.91,4.14c-9.93,-0.05 -20.95,-0.78 -30.64,-5.01c-7.65,-3.34 -13.95,-8.96 -18.59,-16.8c-6.08,-10.26 -9.6,-22.35 -11.93,-33.91c-2.76,-13.69 -6.91,-31.06 -0.44,-43.38c5.58,-10.63 20.71,-11.35 31.59,-11.7c6.8,-0.22 15.63,1.06 25.95,3.18c2.21,0.45 3.31,0.67 5.53,1.11c2.9,9.5 5.79,18.99 8.67,28.5c-8.78,-1.06 -16.69,-1.59 -23.81,-1.59c-7.12,0 -11.3,1.41 -12.57,4.22c-1.27,2.81 -0.72,8.62 1.71,17.43c2.43,8.81 4.61,14.91 6.59,18.31c1.97,3.4 4.27,5.65 6.89,6.77s6.51,1.67 11.68,1.67c10.17,-0.38 15.24,-0.57 25.38,-0.96c3.28,9.35 6.59,18.69 9.9,28.02z"/>
     <path fill="#ffffff" stroke="null" id="svg_13" d="m709.715107,32.857706c-10.84,-1.16 -21.82,-2.33 -32.67,-2.39c-6.51,-0.04 -10.28,0.19 -11.19,0.56c-0.91,0.37 -1.11,1.14 -0.59,2.31c0.52,1.17 1.53,2.07 3.05,2.71c1.52,0.64 5.88,1.7 13.15,3.18c7.27,1.49 13.37,2.95 18.29,4.38c4.92,1.43 9.73,3.45 14.46,6.05c4.72,2.6 8.63,5.79 11.67,9.55c3.05,3.77 6.17,9 9.49,15.2c4.14,7.73 9.45,20.75 3.26,28.18c-6.42,7.7 -20.19,8.55 -30.01,8.44c-7.26,-0.08 -15.26,-0.48 -23.73,-1.43c-8.47,-0.96 -15.05,-1.91 -19.76,-2.87c-2.89,-0.57 -4.34,-0.86 -7.22,-1.43c-3.08,-9.4 -6.18,-18.79 -9.3,-28.18c14.22,1.73 28.47,3.46 42.77,3.5c5.7,0.02 8.02,-1.22 6.89,-3.66c-0.49,-1.06 -1.5,-1.83 -3.02,-2.31c-1.53,-0.48 -5.37,-1.14 -11.51,-1.99c-12.25,-2.15 -25.04,-4.07 -35.42,-10.91c-8.38,-5.51 -13.88,-15.11 -17.51,-24.28c-3.3,-8.34 -7.69,-21.77 -1.76,-29.45c5.61,-7.28 17.75,-7.64 26.1,-7.96c11.03,-0.42 22.83,1.54 34.17,3.02c2.69,0.45 4.04,0.67 6.75,1.11c4.55,9.56 9.11,19.11 13.64,28.67z"/>
    </g>
   </g>
   <g stroke="null" transform="matrix(0.06711431114133116,0,0,0.06711431114133116,9.003418773864997e-7,0.0000014574870059135854) " id="svg_14">
    <path fill="#ffffff" stroke="null" id="svg_15" d="m211.695107,174.747706l-4.79,0l0,14.54l-19.5,0l0,-56.32l23.7,0c8.69,0 14.91,1.44 18.66,4.33c3.75,2.89 5.63,8.24 5.63,16.05c0,7.82 -2.07,13.41 -6.22,16.77l5.55,19.16l-19.84,0l-3.19,-14.53zm-0.08,-15.39c2.75,0 4.12,-1.83 4.12,-5.5s-1.54,-5.51 -4.62,-5.51l-4.29,0l0,11.01l4.79,0z"/>
    <path fill="#ffffff" stroke="null" id="svg_16" d="m307.685107,161.127706c0,10.25 -2.13,17.69 -6.39,22.32c-4.26,4.62 -11.05,6.93 -20.38,6.93c-9.33,0 -16.14,-2.32 -20.43,-6.98c-4.29,-4.65 -6.43,-12.09 -6.43,-22.32c0,-10.22 2.13,-17.65 6.39,-22.27c4.26,-4.62 11.07,-6.93 20.43,-6.93c9.36,0 16.17,2.31 20.43,6.93c4.25,4.62 6.38,12.07 6.38,22.32zm-33.96,0c0,4.76 0.46,8.2 1.39,10.3c0.93,2.1 2.86,3.15 5.8,3.15s4.86,-1.04 5.76,-3.11c0.9,-2.07 1.34,-5.53 1.34,-10.38c0,-4.85 -0.43,-8.29 -1.3,-10.34c-0.87,-2.04 -2.79,-3.07 -5.76,-3.07c-2.97,0 -4.92,1.05 -5.84,3.15c-0.92,2.1 -1.39,5.54 -1.39,10.3z"/>
    <path fill="#ffffff" stroke="null" id="svg_17" d="m355.765107,189.287706l-19.5,0l0,-17.65l-16.05,-38.67l20.68,0l5.3,16.56l5.46,-16.56l20.6,0l-16.48,38.67l0,17.65l-0.01,0z"/>
    <path fill="#ffffff" stroke="null" id="svg_18" d="m379.475107,189.287706l12.44,-56.32l29.5,0l12.69,56.32l-19.67,0l-1.6,-6.47l-12.85,0l-1.34,6.47l-19.17,0zm26.22,-41.02l-3.19,19.67l8.32,0l-3.03,-19.67l-2.1,0z"/>
    <path fill="#ffffff" stroke="null" id="svg_19" d="m489.925107,189.287706l-37.83,0l0,-56.32l19.5,0l0,40.43l18.32,0l0,15.89l0.01,0z"/>
    <path fill="#ffffff" stroke="null" id="svg_20" d="m509.165107,189.287706l0,-56.32l42.2,0l0,15.55l-22.7,0l0,4.79l17.65,0l0,15.38l-17.65,0l0,5.04l22.7,0l0,15.55l-42.2,0l0,0.01z"/>
   </g>
  </g>
 </g>
</svg>