<?xml version="1.0" encoding="utf-8"?>
<!-- Generator: Adobe Illustrator 26.0.2, SVG Export Plug-In . SVG Version: 6.00 Build 0)  -->
<svg version="1.1" id="Layer_1" xmlns="http://www.w3.org/2000/svg" xmlns:xlink="http://www.w3.org/1999/xlink" x="0px" y="0px"
	 viewBox="0 0 1600 400" style="enable-background:new 0 0 1600 400;" xml:space="preserve">
<style type="text/css">
	.st0{fill:#6B5196;}
	.st1{font-family:'ArialMT';}
	.st2{font-size:54.4455px;}
	.st3{fill:#D5993B;}
	.st4{fill:#424242;}
	.st5{fill:#F3F3F3;}
	.st6{fill-rule:evenodd;clip-rule:evenodd;fill:#6B5196;}
	.st7{fill:#FFFFFF;}
	.st8{fill-rule:evenodd;clip-rule:evenodd;fill:#FFFFFF;}
</style>
<g>
	<text transform="matrix(1 0 0 1 1328.7852 328.3164)" class="st0 st1 st2">PLUS</text>
	<g>
		<path class="st3" d="M525.8,187.4c0-7.8,2.1-13.4,6.4-16.8c4.3-3.4,9.4-5.1,15.5-5.1c17.2,0,31,0.6,41.4,1.7v16.1H553
			c-2.6,0-4.6,0.7-6,2.1s-2.1,3.3-2.1,5.5v16.4l37.9,1v15.1l-37.9,1v36.8h-19.2L525.8,187.4L525.8,187.4z"/>
		<path class="st3" d="M618.1,165.5h24.2l30,95.8h-19.9l-6.1-20.1h-32.6l-6,20.1h-19.7L618.1,165.5z M641.8,224L630,181.9L618.2,224
			H641.8z"/>
		<path class="st3" d="M683.4,165.5h15.4l40.1,63.2v-63.2h19.2v95.8h-15.4l-40-63.2v63.2h-19.3V165.5z"/>
		<path class="st3" d="M794,182.7h-26.3v-17.2h71.8v17.2h-26.4v78.6H794L794,182.7L794,182.7z"/>
		<path class="st3" d="M867.3,165.5h24.2l30,95.8h-19.9l-6.1-20.1h-32.6l-6,20.1h-19.7L867.3,165.5z M891,224l-11.8-42.1L867.5,224
			H891z"/>
		<path class="st3" d="M945.1,261.1c-5.6-0.6-10.3-1.4-14.2-2.3v-15.1c7.7,0.8,17.4,1.2,29.1,1.2c5.3,0,9.2-0.7,11.9-2.1
			c2.7-1.4,4-3.9,4-7.6v-3.5c0-2.9-0.8-5-2.5-6.5s-4.1-2.3-7.2-2.3h-8.2c-9.5,0-16.6-2.1-21.3-6.2c-4.7-4.1-7-10.9-7-20.3v-4.7
			c0-17.9,10.3-26.9,30.9-26.9c4.8,0,9.8,0.3,15,1c5.2,0.6,9.8,1.4,14,2.3v15.1c-11.8-0.8-20.8-1.2-26.8-1.2
			c-4.9,0-8.6,0.8-11.1,2.3c-2.5,1.5-3.8,4.3-3.8,8.4v2.6c0,3.3,0.9,5.7,2.8,7.2c1.8,1.5,4.7,2.3,8.5,2.3h9.5c8.3,0,14.6,2.3,19,6.8
			c4.4,4.5,6.5,10.5,6.5,17.8v5.4c0,7.2-1.3,12.9-4,16.9c-2.7,4-6.4,6.8-11.3,8.3c-4.8,1.5-10.8,2.3-18,2.3
			C956,262,950.7,261.8,945.1,261.1z"/>
		<path class="st3" d="M1031.1,232.3l-28.9-66.8h19.9l18.9,47.2l18.8-47.2h19.2l-28.7,66.8v29h-19.2L1031.1,232.3L1031.1,232.3z"/>
		<path class="st4" d="M1100.4,258.2c-4.9-2.5-8.7-7.4-11.3-14.5c-2.6-7.1-3.9-17.3-3.9-30.6c0-12.8,1.4-22.7,4.1-29.8
			c2.7-7.1,6.6-12,11.6-14.7s11.4-4.1,19.3-4.1c5.9,0,11.4,0.4,16.6,1.4c5.2,0.9,9.6,2,13.3,3.2V184c-2.6-0.6-6.3-1.1-11-1.6
			c-4.8-0.4-9.7-0.6-14.9-0.6c-5.2,0-9.2,0.8-11.9,2.4c-2.8,1.6-4.8,4.6-6,9.1s-1.9,11.1-1.9,20c0,8.8,0.6,15.4,1.7,19.8
			c1.1,4.4,3.1,7.5,5.8,9.2c2.8,1.7,6.9,2.6,12.3,2.6c10.5,0,19.2-0.4,25.9-1.3v14.7c-7.7,2.5-17.7,3.8-30.2,3.8
			C1111.8,262,1105.3,260.8,1100.4,258.2z"/>
		<path class="st4" d="M1163.4,165.5h39.6c8.4,0,15.1,2.3,20,6.8c4.9,4.5,7.3,12.5,7.3,23.9c0,8-1.4,14-4.1,17.9
			c-2.7,3.9-6.4,6.8-11.1,8.8l17.9,38.4h-19.5l-15.4-35.5c-4.1,0-9.3-0.1-15.5-0.3v35.7h-19.2L1163.4,165.5L1163.4,165.5z
			 M1199.7,210.4c3.7,0,6.6-1.1,8.5-3.2c2-2.1,3-5.8,3-11.1c0-5.1-1-8.6-3-10.6c-2-1.9-4.8-2.9-8.5-2.9h-17.1v27.7L1199.7,210.4
			L1199.7,210.4z"/>
		<path class="st4" d="M1244.6,165.5h19.2v95.8h-19.2V165.5z"/>
		<path class="st4" d="M1300.4,182.7h-26.3v-17.2h71.8v17.2h-26.4v78.6h-19.2L1300.4,182.7L1300.4,182.7z"/>
		<path class="st4" d="M1356.3,165.5h19.2v95.8h-19.2V165.5z"/>
		<path class="st4" d="M1404.8,258.2c-4.9-2.5-8.7-7.4-11.3-14.5c-2.6-7.1-3.9-17.3-3.9-30.6c0-12.8,1.4-22.7,4.1-29.8
			c2.7-7.1,6.6-12,11.6-14.7s11.4-4.1,19.3-4.1c5.9,0,11.4,0.4,16.6,1.4s9.6,2,13.3,3.2V184c-2.6-0.6-6.3-1.1-11-1.6
			c-4.7-0.4-9.7-0.6-14.9-0.6s-9.2,0.8-11.9,2.4c-2.8,1.6-4.8,4.6-6,9.1s-1.9,11.1-1.9,20c0,8.8,0.6,15.4,1.7,19.8
			c1.1,4.4,3.1,7.5,5.8,9.2s6.9,2.6,12.3,2.6c10.5,0,19.2-0.4,25.9-1.3v14.7c-7.7,2.5-17.7,3.8-30.2,3.8
			C1416.2,262,1409.7,260.8,1404.8,258.2z"/>
	</g>
	<polygon class="st0" points="1312.7,301.3 1308.3,305.5 1303.9,301.3 1303.9,291 1312.7,291 	"/>
	<polygon class="st0" points="1303.9,314.9 1308.3,310.7 1312.7,314.9 1312.7,325.1 1303.9,325.1 	"/>
	<polygon class="st0" points="1315.1,312.5 1310.9,308.1 1315.1,303.7 1325.3,303.7 1325.3,312.5 	"/>
	<polygon class="st0" points="1301.5,303.7 1305.7,308.1 1301.5,312.5 1291.2,312.5 1291.2,303.7 	"/>
	<g>
		<rect x="525.8" y="305.1" class="st0" width="753.1" height="6"/>
	</g>
	<circle class="st5" cx="302" cy="169.6" r="127.1"/>
	<g>
		<g>
			<path class="st0" d="M469.3,183.4c-1.5-8.7-13.8-17.3-13.4-2.3c0.2,71.4-57.9,108.3-60.7,111.3c-12.6,13.7,15.1,55.1,48.1,12.3
				C488.8,245.6,470.1,188.5,469.3,183.4z M148.3,181.1c0.4-15-11.9-6.4-13.4,2.3c-0.9,5.1-19.5,62.2,26,121.3
				c32.9,42.8,60.7,1.4,48.1-12.3C206.2,289.4,148.1,252.6,148.3,181.1z"/>
		</g>
		<g>
			<g>
				<g>
					<path class="st6" d="M380.6,297.1c2.2-1.2,37.2-21.1,54.3-57.4c3.2-11.1,7.5,0.8,7.4,3.9c-0.1,2.4,0.9,26.4-14.5,51.8
						c-7,11.5-2.6,26.2-16.7,35.3C372.3,355.7,370.6,302.6,380.6,297.1z"/>
				</g>
			</g>
			<g>
				<g>
					<path class="st7" d="M393,338.8c-2.9,0-5.6-0.7-8-2c-8.1-4.4-10.9-15.3-10.9-24.1c0-8.2,2.3-14.8,5.9-16.8l0,0
						c1.5-0.8,36.5-20.2,53.7-56.8c0.4-1.3,1.7-5.9,4.8-5.4c3.4,0.6,5.3,7.7,5.1,9.9c0,0.2,0,0.5,0,0.9c-0.2,23-8.1,40.7-14.6,51.5
						c-2.5,4.2-3.5,8.8-4.5,13.6c-1.7,8-3.4,16.2-12.6,22.2C404.7,336.5,398.4,338.8,393,338.8z M381.3,298.3
						c-2.6,1.4-4.5,7.5-4.5,14.4c0,8,2.5,17.9,9.5,21.7c6,3.2,14,1.6,24-4.8c8.3-5.3,9.8-12.7,11.5-20.5c1-4.8,2-9.9,4.8-14.4
						c6.4-10.5,14-27.8,14.2-50.2c0-0.5,0-0.9,0-1.1c0.1-2.1-1.9-7-2.9-7.1c0,0-0.8,0.3-1.8,3.7
						C418.6,277.6,382.8,297.5,381.3,298.3L381.3,298.3z"/>
				</g>
			</g>
		</g>
		<g>
			<g>
				<g>
					<path class="st6" d="M223.6,297.1c-2.2-1.2-37.2-21.1-54.3-57.4c-3.2-11.1-7.5,0.8-7.4,3.9c0.1,2.4-0.9,26.4,14.5,51.8
						c7,11.5,2.6,26.2,16.7,35.3C231.9,355.7,233.6,302.6,223.6,297.1z"/>
				</g>
			</g>
			<g>
				<g>
					<path class="st7" d="M211.2,338.8c-5.4,0-11.7-2.3-18.8-6.8c-9.2-5.9-11-14.2-12.6-22.2c-1-4.8-2-9.4-4.5-13.6
						c-6.5-10.8-14.4-28.5-14.6-51.6c0-0.4,0-0.7,0-0.9c-0.1-2.2,1.8-9.4,5.1-9.9c3.1-0.5,4.4,4,4.9,5.5
						c17.1,36.4,52.1,55.8,53.6,56.6l0,0c3.6,1.9,5.9,8.5,5.9,16.8c0,8.8-2.9,19.7-10.9,24.1C216.7,338.1,214.1,338.8,211.2,338.8z
						 M166.2,236.4c-1,0.1-3,5-2.9,7.1c0,0.2,0,0.6,0,1.1c0.2,22.4,7.9,39.7,14.2,50.2c2.8,4.6,3.8,9.6,4.8,14.4
						c1.6,7.8,3.1,15.1,11.5,20.5c10,6.4,18.1,8,24,4.8c7-3.9,9.5-13.8,9.5-21.7c0-6.9-1.9-13-4.5-14.4c-1.5-0.8-37.3-20.7-54.8-58
						C167,236.7,166.2,236.4,166.2,236.4z"/>
				</g>
			</g>
		</g>
	</g>
	<g>
		<path class="st0" d="M302,317c-39.4,0-76.4-15.3-104.2-43.2c-27.8-27.8-43.2-64.9-43.2-104.2c0-39.4,15.3-76.4,43.2-104.2
			c27.8-27.8,64.9-43.2,104.2-43.2s76.4,15.3,104.2,43.2c27.8,27.8,43.2,64.8,43.2,104.2c0,39.4-15.3,76.4-43.2,104.2
			C378.3,301.7,341.3,317,302,317z M302,31.5c-76.2,0-138.1,62-138.1,138.1s62,138.1,138.1,138.1s138.1-62,138.1-138.1
			S378.1,31.5,302,31.5z"/>
	</g>
	<path class="st6" d="M198,344.9c0,0,19.3-6.6,18.6-31.5h168.3c0,0-1.8,25.4,20.5,31.5H198z"/>
	<g>
		<path class="st0" d="M322.7,285.9c0,0-4.7-3.9-1-11.2s6.5-7.7,2.7-19.5c-0.7-2.1,1-1,1.8,0c0.8,1,8.4,9.8,7.2,16.8
			S331.1,281.8,322.7,285.9z"/>
		<path class="st0" d="M286.8,285.9c0,0,4.7-3.9,1-11.2s-6.5-7.7-2.7-19.5c0.7-2.1-1-1-1.8,0c-0.8,1-8.4,9.8-7.2,16.8
			C277.3,279.1,278.5,281.8,286.8,285.9z"/>
		<path class="st6" d="M306.7,211.2c-3.8,0.4-18.1,37-20,49.9c0,7.5,9,12.8,4.5,21.6c-4.5,8.8,28.5,10.5,29.2,1.1
			c-7-8,3.7-14.8,2.9-22.4C322.3,254,310.5,210.8,306.7,211.2z"/>
	</g>
	<rect x="219.1" y="286.2" class="st6" width="168.8" height="13.5"/>
	<path class="st8" d="M391.7,314.7H216c-0.8,0-1.5-0.7-1.5-1.5v-15c0-0.8,0.7-1.5,1.5-1.5h175.7c0.8,0,1.5,0.7,1.5,1.5v15
		C393.2,314,392.5,314.7,391.7,314.7z"/>
	<path class="st3" d="M306,156.9h0.2C306.3,156.9,306.3,156.9,306,156.9C306.3,156.9,306.3,156.9,306,156.9z"/>
	<ellipse transform="matrix(0.1602 -0.9871 0.9871 0.1602 65.3445 382.1432)" class="st0" cx="257.2" cy="152.7" rx="32" ry="32"/>
	<path class="st3" d="M392.1,141.2c-6.9-14.6-18.9-24.6-31.6-27.7l0,0h-0.5c-5-1.2-10.3-1.2-15.3,0h-77.2c-5-1.2-10.3-1.2-15.3,0
		h-0.5l0,0c-12.4,3.1-24.4,13.2-31.3,27.7c-10.8,22.9-16,72.9,2.1,81.3c15.8,7.4,44.2-18.6,58.6-41.4h50.4
		c14.1,22.5,42.5,48.8,58.6,41.4C408.1,214.1,402.9,164.1,392.1,141.2z M246.8,137.1v-6.7h6.9h6.7v6.7v6.7l-6.7,8.1l-6.7-8.1v-6.7
		H246.8z M236,161.7h-6.9v-6.9v-6.7h6.9h6.7l8.1,6.7l-8.1,6.7H236V161.7z M260.4,172.5v6.9h-6.7h-6.9v-6.9v-6.7l6.7-8.1l6.7,8.1v6.7
		H260.4z M278.1,154.8v6.9h-6.7h-6.7l-8.1-6.7l8.1-6.7h6.7h6.7V154.8z M299.6,171.3h-8.1c-1.4,0-2.6-1.2-2.6-2.6
		c0-1.4,1.2-2.6,2.6-2.6h8.1c1.4,0,2.6,1.2,2.6,2.6S301,171.3,299.6,171.3z M321.1,171.3H313c-1.4,0-2.6-1.2-2.6-2.6
		c0-1.4,1.2-2.6,2.6-2.6h8.1c1.4,0,2.6,1.2,2.6,2.6C324,170.1,322.8,171.3,321.1,171.3z M361,130.4c4.5,0,8.1,3.6,8.1,8.1
		s-3.6,8.1-8.1,8.1s-8.1-3.6-8.1-8.1S356.7,130.4,361,130.4z M344.8,162.9c-4.5,0-8.1-3.6-8.1-8.1s3.6-8.1,8.1-8.1s8.1,3.6,8.1,8.1
		S349.3,162.9,344.8,162.9z M361,179.4c-4.5,0-8.1-3.6-8.1-8.1s3.6-8.1,8.1-8.1s8.1,3.6,8.1,8.1C369.2,175.6,365.6,179.4,361,179.4z
		 M377.5,162.9c-4.5,0-8.1-3.6-8.1-8.1s3.6-8.1,8.1-8.1s8.1,3.6,8.1,8.1C385.7,159.3,381.8,162.9,377.5,162.9z"/>
	<path class="st0" d="M389.9,312.1H218.3c-0.6,0-1.2-0.5-1.2-1.2v-6.4c0-0.1,0.1-0.1,0.1-0.1H391c0.1,0,0.1,0,0.1,0.1v6.4
		C391.1,311.5,390.5,312.1,389.9,312.1z"/>
	<g>
		<path class="st0" d="M412.8,369.5v-2.2c-5.1,2.7-10.7,6.4-10.9,9c0,0.2,0,0.6,0.3,1.1h2.6C409.2,377.4,412.8,373.9,412.8,369.5z"
			/>
		<path class="st0" d="M207.1,376.2c0,0.4,0,0.8-0.1,1.2h193.1c-0.1-0.4-0.1-0.9-0.1-1.2c0.3-4.2,8.3-8.8,12.9-11.1V352
			c0-0.1-0.1-0.3-0.3-0.3H195.6c-0.1,0-0.3,0.1-0.3,0.3v13.7C200,368.1,206.8,372.4,207.1,376.2z"/>
		<path class="st0" d="M205.1,376.4c-0.2-2.4-5-5.9-9.8-8.5v1.6c0,4.4,3.6,7.9,7.9,7.9h1.6C205.2,376.9,205.1,376.5,205.1,376.4z"/>
	</g>
</g>
</svg>
