<?xml version="1.0" encoding="utf-8"?>
<!-- Generator: Adobe Illustrator 25.3.1, SVG Export Plug-In . SVG Version: 6.00 Build 0)  -->
<svg version="1.1" id="Layer_1" xmlns="http://www.w3.org/2000/svg" xmlns:xlink="http://www.w3.org/1999/xlink" x="0px" y="0px"
	 viewBox="0 0 1600 400" style="enable-background:new 0 0 1600 400;" xml:space="preserve">
<style type="text/css">
	.st0{fill:#5B3A95;}
	.st1{font-family:'OpenSans-Extrabold';}
	.st2{font-size:54.4455px;}
	.st3{fill:#D5993B;}
	.st4{fill:#424242;}
	.st5{fill:#F3F3F3;}
	.st6{fill-rule:evenodd;clip-rule:evenodd;fill:#5B3A95;}
	.st7{fill:#FFFFFF;}
	.st8{fill-rule:evenodd;clip-rule:evenodd;fill:#FFFFFF;}
</style>
<g>
	<text transform="matrix(1 0 0 1 1328.7852 328.3164)" class="st0 st1 st2">PLUS</text>
	<g>
		<path class="st3" d="M525.81,187.38c0-7.77,2.14-13.35,6.41-16.76c4.27-3.41,9.42-5.11,15.46-5.11c17.17,0,30.97,0.56,41.41,1.68
			v16.05h-36.11c-2.59,0-4.57,0.71-5.95,2.13c-1.38,1.42-2.07,3.26-2.07,5.5v16.44l37.92,1.04v15.14l-37.92,1.03v36.75h-19.15
			V187.38z"/>
		<path class="st3" d="M618.08,165.51h24.2l30.02,95.77h-19.93l-6.08-20.06h-32.61l-5.95,20.06h-19.67L618.08,165.51z
			 M641.77,224.01l-11.78-42.06l-11.78,42.06H641.77z"/>
		<path class="st3" d="M683.44,165.51h15.4l40.12,63.16v-63.16h19.15v95.77h-15.4l-39.99-63.16v63.16h-19.28V165.51z"/>
		<path class="st3" d="M793.96,182.72h-26.27v-17.21h71.83v17.21h-26.4v78.56h-19.15V182.72z"/>
		<path class="st3" d="M867.34,165.51h24.2l30.02,95.77h-19.93l-6.08-20.06h-32.61l-5.95,20.06h-19.67L867.34,165.51z
			 M891.03,224.01l-11.78-42.06l-11.78,42.06H891.03z"/>
		<path class="st3" d="M945.13,261.15c-5.61-0.6-10.35-1.38-14.24-2.33v-15.14c7.68,0.78,17.38,1.16,29.12,1.16
			c5.26,0,9.23-0.71,11.91-2.13c2.67-1.42,4.01-3.95,4.01-7.57v-3.49c0-2.85-0.84-5.03-2.52-6.54c-1.68-1.51-4.08-2.26-7.19-2.26
			h-8.15c-9.49,0-16.59-2.07-21.29-6.21c-4.7-4.14-7.05-10.92-7.05-20.32v-4.66c0-17.95,10.31-26.92,30.93-26.92
			c4.83,0,9.84,0.32,15.01,0.97c5.18,0.65,9.84,1.4,13.98,2.27v15.14c-11.82-0.78-20.75-1.16-26.79-1.16
			c-4.92,0-8.63,0.76-11.13,2.26c-2.5,1.51-3.75,4.29-3.75,8.35v2.59c0,3.28,0.93,5.68,2.78,7.18c1.85,1.51,4.68,2.26,8.48,2.26
			h9.45c8.28,0,14.6,2.27,18.96,6.79c4.36,4.53,6.53,10.47,6.53,17.8v5.44c0,7.25-1.34,12.88-4.01,16.89
			c-2.68,4.01-6.43,6.77-11.26,8.28c-4.84,1.51-10.83,2.26-17.99,2.26C956,262.05,950.73,261.75,945.13,261.15z"/>
		<path class="st3" d="M1031.06,232.29l-28.86-66.78h19.93l18.89,47.24l18.76-47.24h19.15l-28.73,66.78v28.99h-19.15V232.29z"/>
		<path class="st4" d="M1100.43,258.24c-4.92-2.54-8.69-7.37-11.33-14.49c-2.63-7.12-3.95-17.32-3.95-30.61
			c0-12.77,1.36-22.69,4.08-29.77c2.72-7.07,6.58-11.97,11.58-14.69c5-2.72,11.43-4.08,19.28-4.08c5.86,0,11.39,0.45,16.56,1.36
			c5.18,0.91,9.62,1.96,13.33,3.17v14.88c-2.59-0.6-6.26-1.12-11-1.55c-4.75-0.43-9.71-0.65-14.88-0.65c-5.18,0-9.15,0.8-11.91,2.39
			c-2.76,1.6-4.77,4.62-6.02,9.06c-1.25,4.44-1.88,11.11-1.88,19.99c0,8.8,0.56,15.4,1.68,19.8c1.12,4.4,3.06,7.46,5.82,9.19
			c2.76,1.73,6.86,2.59,12.29,2.59c10.52,0,19.15-0.43,25.88-1.29v14.75c-7.68,2.5-17.73,3.75-30.15,3.75
			C1111.82,262.05,1105.34,260.78,1100.43,258.24z"/>
		<path class="st4" d="M1163.45,165.51h39.61c8.45,0,15.12,2.26,19.99,6.79c4.88,4.53,7.32,12.49,7.32,23.88
			c0,8.03-1.36,13.98-4.08,17.86c-2.72,3.89-6.4,6.82-11.07,8.8l17.86,38.44h-19.54l-15.4-35.46c-4.14,0-9.32-0.08-15.53-0.26v35.72
			h-19.15V165.51z M1199.69,210.42c3.71,0,6.56-1.05,8.54-3.17c1.98-2.11,2.98-5.8,2.98-11.07c0-5.09-0.99-8.6-2.98-10.55
			c-1.98-1.94-4.83-2.91-8.54-2.91h-17.08v27.7H1199.69z"/>
		<path class="st4" d="M1244.6,165.51h19.15v95.77h-19.15V165.51z"/>
		<path class="st4" d="M1300.37,182.72h-26.27v-17.21h71.83v17.21h-26.4v78.56h-19.15V182.72z"/>
		<path class="st4" d="M1356.29,165.51h19.15v95.77h-19.15V165.51z"/>
		<path class="st4" d="M1404.82,258.24c-4.92-2.54-8.69-7.37-11.32-14.49c-2.63-7.12-3.95-17.32-3.95-30.61
			c0-12.77,1.36-22.69,4.08-29.77c2.72-7.07,6.58-11.97,11.58-14.69s11.43-4.08,19.28-4.08c5.87,0,11.39,0.45,16.57,1.36
			s9.62,1.96,13.33,3.17v14.88c-2.59-0.6-6.26-1.12-11-1.55c-4.74-0.43-9.7-0.65-14.88-0.65c-5.18,0-9.15,0.8-11.91,2.39
			c-2.76,1.6-4.77,4.62-6.02,9.06s-1.87,11.11-1.87,19.99c0,8.8,0.56,15.4,1.68,19.8c1.12,4.4,3.06,7.46,5.82,9.19
			s6.86,2.59,12.29,2.59c10.53,0,19.15-0.43,25.88-1.29v14.75c-7.68,2.5-17.73,3.75-30.15,3.75
			C1416.2,262.05,1409.73,260.78,1404.82,258.24z"/>
	</g>
	<polygon class="st0" points="1312.67,301.31 1308.29,305.45 1303.9,301.31 1303.9,291.05 1312.67,291.05 	"/>
	<polygon class="st0" points="1303.9,314.86 1308.29,310.71 1312.67,314.86 1312.67,325.12 1303.9,325.12 	"/>
	<polygon class="st0" points="1315.06,312.47 1310.92,308.08 1315.06,303.7 1325.32,303.7 1325.32,312.47 	"/>
	<polygon class="st0" points="1301.51,303.7 1305.66,308.08 1301.51,312.47 1291.25,312.47 1291.25,303.7 	"/>
	<g>
		<rect x="525.81" y="305.08" class="st0" width="753.12" height="6.01"/>
	</g>
	<circle class="st5" cx="301.97" cy="169.61" r="127.05"/>
	<g>
		<g>
			<path class="st0" d="M469.26,183.42c-1.46-8.72-13.76-17.28-13.36-2.28c0.16,71.44-57.9,108.26-60.71,111.3
				c-12.61,13.66,15.15,55.06,48.08,12.27C488.78,245.56,470.12,188.52,469.26,183.42z M148.31,181.14c0.41-15-11.9-6.44-13.36,2.28
				c-0.85,5.1-19.52,62.15,25.98,121.29c32.93,42.8,60.7,1.39,48.08-12.27C206.22,289.39,148.15,252.57,148.31,181.14z"/>
		</g>
		<g>
			<g>
				<g>
					<path class="st6" d="M380.61,297.14c2.23-1.22,37.23-21.09,54.26-57.44c3.23-11.05,7.53,0.78,7.35,3.95
						c-0.14,2.42,0.92,26.42-14.46,51.85c-6.98,11.54-2.56,26.24-16.7,35.32C372.31,355.7,370.6,302.6,380.61,297.14z"/>
				</g>
			</g>
			<g>
				<g>
					<path class="st7" d="M392.98,338.78c-2.9,0-5.56-0.66-7.96-1.97c-8.06-4.41-10.93-15.33-10.93-24.08
						c0.01-8.24,2.31-14.83,5.88-16.77l0,0c1.48-0.81,36.55-20.24,53.68-56.83c0.37-1.31,1.69-5.87,4.77-5.35
						c3.36,0.58,5.26,7.71,5.13,9.95c-0.01,0.18-0.01,0.49-0.02,0.93c-0.25,23.01-8.1,40.73-14.64,51.54
						c-2.53,4.18-3.48,8.75-4.49,13.59c-1.66,7.98-3.38,16.22-12.63,22.16C404.69,336.5,398.41,338.78,392.98,338.78z
						 M381.26,298.32c-2.59,1.41-4.48,7.48-4.48,14.42c0,7.98,2.5,17.88,9.54,21.73c5.95,3.25,14.03,1.65,24.02-4.77
						c8.31-5.33,9.84-12.68,11.46-20.45c1.01-4.84,2.05-9.86,4.82-14.43c6.37-10.53,14.01-27.79,14.25-50.19
						c0.01-0.49,0.01-0.85,0.02-1.05c0.12-2.14-1.86-7.02-2.91-7.15c0.01,0-0.83,0.29-1.82,3.66
						C418.58,277.65,382.78,297.49,381.26,298.32L381.26,298.32z"/>
				</g>
			</g>
		</g>
		<g>
			<g>
				<g>
					<path class="st6" d="M223.55,297.14c-2.23-1.22-37.23-21.09-54.26-57.44c-3.23-11.05-7.53,0.78-7.35,3.95
						c0.14,2.42-0.92,26.42,14.46,51.85c6.98,11.54,2.56,26.24,16.7,35.32C231.85,355.7,233.56,302.6,223.55,297.14z"/>
				</g>
			</g>
			<g>
				<g>
					<path class="st7" d="M211.18,338.78c-5.42,0-11.71-2.28-18.8-6.83c-9.25-5.94-10.97-14.18-12.63-22.16
						c-1.01-4.84-1.96-9.41-4.49-13.59c-6.54-10.82-14.39-28.54-14.64-51.55c0-0.43-0.01-0.74-0.02-0.92
						c-0.13-2.24,1.76-9.36,5.13-9.95c3.11-0.54,4.4,4.04,4.85,5.54c17.07,36.4,52.13,55.83,53.61,56.63l0,0
						c3.57,1.94,5.87,8.53,5.88,16.77c0.01,8.75-2.86,19.67-10.93,24.08C216.74,338.13,214.08,338.78,211.18,338.78z M166.17,236.42
						c-1.04,0.13-3.02,5.01-2.9,7.15c0.01,0.21,0.02,0.56,0.02,1.05c0.24,22.4,7.88,39.66,14.25,50.19
						c2.76,4.57,3.81,9.58,4.82,14.43c1.62,7.77,3.15,15.12,11.46,20.45c10,6.42,18.08,8.03,24.03,4.77
						c7.04-3.85,9.54-13.75,9.54-21.73c0-6.94-1.89-13.01-4.48-14.42c-1.52-0.83-37.32-20.67-54.83-58.04
						C167.02,236.71,166.18,236.42,166.17,236.42z"/>
				</g>
			</g>
		</g>
	</g>
	<g>
		<path class="st0" d="M301.97,316.99c-39.37,0-76.38-15.33-104.21-43.17c-27.84-27.84-43.17-64.85-43.17-104.21
			c0-39.37,15.33-76.38,43.17-104.21c27.84-27.84,64.85-43.17,104.21-43.17s76.38,15.33,104.21,43.17
			c27.84,27.84,43.17,64.85,43.17,104.21c0,39.37-15.33,76.38-43.17,104.21C378.34,301.66,341.33,316.99,301.97,316.99z
			 M301.97,31.46c-76.17,0-138.14,61.97-138.14,138.14c0,76.17,61.97,138.14,138.14,138.14c76.17,0,138.14-61.97,138.14-138.14
			C440.11,93.43,378.14,31.46,301.97,31.46z"/>
	</g>
	<path class="st6" d="M197.99,344.86c0,0,19.27-6.57,18.63-31.46H384.9c0,0-1.76,25.38,20.55,31.46H197.99z"/>
	<g>
		<path class="st0" d="M322.73,285.93c0,0-4.68-3.92-1-11.17c3.68-7.25,6.47-7.7,2.68-19.52c-0.67-2.12,1.05-1,1.81,0
			c0.76,1,8.36,9.82,7.18,16.84S331.09,281.82,322.73,285.93z"/>
		<path class="st0" d="M286.81,285.93c0,0,4.68-3.92,1-11.17c-3.68-7.25-6.47-7.7-2.68-19.52c0.67-2.12-1.05-1-1.81,0
			s-8.36,9.82-7.18,16.84C277.33,279.12,278.45,281.82,286.81,285.93z"/>
		<path class="st6" d="M306.68,211.25c-3.84,0.45-18.14,36.97-20.01,49.94c-0.04,7.45,8.96,12.78,4.48,21.62
			c-4.48,8.84,28.51,10.49,29.23,1.15c-7.01-7.97,3.72-14.78,2.9-22.39C322.31,254.01,310.52,210.8,306.68,211.25z"/>
	</g>
	<rect x="219.14" y="286.25" class="st6" width="168.78" height="13.47"/>
	<path class="st8" d="M391.71,314.72H216.02c-0.82,0-1.5-0.67-1.5-1.5v-15.03c0-0.82,0.67-1.5,1.5-1.5h175.69
		c0.82,0,1.5,0.67,1.5,1.5v15.03C393.21,314.04,392.53,314.72,391.71,314.72z"/>
	<path class="st3" d="M306.05,156.91h0.24C306.29,156.91,306.29,156.91,306.05,156.91C306.29,156.91,306.29,156.91,306.05,156.91z"
		/>
	<circle class="st0" cx="257.25" cy="152.67" r="31.98"/>
	<path class="st3" d="M392.12,141.17c-6.93-14.58-18.89-24.62-31.56-27.73l0,0h-0.48c-5.02-1.2-10.28-1.2-15.3,0h-77.22
		c-5.02-1.2-10.28-1.2-15.3,0h-0.48l0,0c-12.43,3.11-24.39,13.15-31.32,27.73c-10.76,22.95-16.02,72.92,2.15,81.28
		c15.78,7.41,44.23-18.65,58.57-41.36h50.44c14.11,22.47,42.55,48.77,58.57,41.36C408.14,214.09,402.88,164.12,392.12,141.17z
		 M246.76,137.11v-6.69h6.93h6.69v6.69v6.69l-6.69,8.13L247,143.8v-6.69H246.76z M236.01,161.73h-6.93v-6.93v-6.69h6.93h6.69
		l8.13,6.69l-8.13,6.69h-6.69V161.73z M260.39,172.49v6.93h-6.69h-6.93v-6.93v-6.69l6.69-8.13l6.69,8.13v6.69H260.39z M278.08,154.8
		v6.93h-6.69h-6.69l-8.13-6.69l8.13-6.69h6.69h6.69V154.8z M299.6,171.3h-8.13c-1.43,0-2.63-1.2-2.63-2.63
		c0-1.43,1.2-2.63,2.63-2.63h8.13c1.43,0,2.63,1.2,2.63,2.63C302.23,170.1,301.03,171.3,299.6,171.3z M321.12,171.3h-8.13
		c-1.43,0-2.63-1.2-2.63-2.63c0-1.43,1.2-2.63,2.63-2.63h8.13c1.43,0,2.63,1.2,2.63,2.63C323.98,170.1,322.79,171.3,321.12,171.3z
		 M361.04,130.42c4.54,0,8.13,3.59,8.13,8.13s-3.59,8.13-8.13,8.13c-4.54,0-8.13-3.59-8.13-8.13S356.74,130.42,361.04,130.42z
		 M344.78,162.93c-4.54,0-8.13-3.59-8.13-8.13s3.59-8.13,8.13-8.13c4.54,0,8.13,3.59,8.13,8.13S349.33,162.93,344.78,162.93z
		 M361.04,179.42c-4.54,0-8.13-3.59-8.13-8.13s3.59-8.13,8.13-8.13c4.54,0,8.13,3.59,8.13,8.13
		C369.17,175.6,365.58,179.42,361.04,179.42z M377.54,162.93c-4.54,0-8.13-3.59-8.13-8.13s3.59-8.13,8.13-8.13
		c4.54,0,8.13,3.59,8.13,8.13C385.66,159.34,381.84,162.93,377.54,162.93z"/>
	<path class="st0" d="M389.88,312.08H218.3c-0.65,0-1.17-0.53-1.17-1.17v-6.42c0-0.06,0.05-0.11,0.11-0.11h173.72
		c0.06,0,0.11,0.05,0.11,0.11v6.42C391.06,311.55,390.53,312.08,389.88,312.08z"/>
	<g>
		<path class="st0" d="M412.79,369.53v-2.2c-5.08,2.67-10.7,6.43-10.88,9.05c-0.01,0.17-0.03,0.57,0.33,1.07h2.63
			C409.23,377.44,412.79,373.88,412.79,369.53z"/>
		<path class="st0" d="M207.1,376.23c0.03,0.36,0,0.77-0.13,1.21h193.09c-0.13-0.44-0.15-0.85-0.13-1.21
			c0.3-4.2,8.29-8.83,12.85-11.14v-13.12c0-0.14-0.12-0.26-0.26-0.26H195.59c-0.14,0-0.26,0.12-0.26,0.26v13.68
			C199.97,368.1,206.82,372.35,207.1,376.23z"/>
		<path class="st0" d="M205.12,376.37c-0.17-2.43-5.03-5.85-9.79-8.47v1.62c0,4.35,3.56,7.92,7.92,7.92h1.55
			C205.16,376.94,205.13,376.54,205.12,376.37z"/>
	</g>
</g>
</svg>
