<?xml version="1.0" encoding="utf-8"?>
<!-- Generator: Adobe Illustrator 26.0.2, SVG Export Plug-In . SVG Version: 6.00 Build 0)  -->
<svg version="1.1" id="Layer_1" xmlns:svg="http://www.w3.org/2000/svg"
	 xmlns="http://www.w3.org/2000/svg" xmlns:xlink="http://www.w3.org/1999/xlink" x="0px" y="0px" viewBox="0 0 542 565"
	 style="enable-background:new 0 0 542 565;" xml:space="preserve">
<style type="text/css">
	.st0{fill:#F2F2F2;}
	.st1{fill:#6B5196;}
	.st2{fill-rule:evenodd;clip-rule:evenodd;fill:#6B5196;}
	.st3{fill:#FFFFFF;}
	.st4{fill-rule:evenodd;clip-rule:evenodd;fill:#FFFFFF;}
	.st5{fill:#D4973A;}
</style>
<g>
	<ellipse class="st0" cx="270.8" cy="234.4" rx="200.6" ry="202.1"/>
	<g>
		<g>
			<g>
				<path class="st1" d="M534.9,256.4c-2.3-13.9-21.7-27.5-21.1-3.6c0.3,113.6-91.4,172.2-95.9,177c-19.9,21.7,23.9,87.6,75.9,19.5
					C565.7,355.2,536.3,264.5,534.9,256.4z M28.2,252.8c0.6-23.9-18.8-10.2-21.1,3.6c-1.3,8.1-30.8,98.9,41,192.9
					c52,68.1,95.8,2.2,75.9-19.5C119.6,424.9,27.9,366.4,28.2,252.8z"/>
			</g>
		</g>
		<g>
			<g>
				<g>
					<path class="st2" d="M394.9,437.3c3.5-1.9,58.8-33.5,85.7-91.4c5.1-17.6,11.9,1.2,11.6,6.3c-0.2,3.8,1.4,42-22.8,82.5
						c-11,18.4-4,41.7-26.4,56.2C381.8,530.4,379.1,446,394.9,437.3z"/>
				</g>
			</g>
			<g>
				<g>
					<path class="st3" d="M414.5,503.5c-4.6,0-8.8-1-12.6-3.1c-12.7-7-17.3-24.4-17.3-38.3c0-13.1,3.7-23.6,9.3-26.7l0,0
						c2.3-1.3,57.7-32.2,84.8-90.4c0.6-2.1,2.7-9.3,7.5-8.5c5.3,0.9,8.3,12.3,8.1,15.8c0,0.3,0,0.8,0,1.5
						c-0.4,36.6-12.8,64.8-23.1,82c-4,6.6-5.5,13.9-7.1,21.6c-2.6,12.7-5.3,25.8-19.9,35.2C433,499.9,423,503.5,414.5,503.5z
						 M396,439.1c-4.1,2.2-7.1,11.9-7.1,22.9c0,12.7,3.9,28.4,15.1,34.6c9.4,5.2,22.2,2.6,37.9-7.6c13.1-8.5,15.5-20.2,18.1-32.5
						c1.6-7.7,3.2-15.7,7.6-22.9c10.1-16.7,22.1-44.2,22.5-79.8c0-0.8,0-1.3,0-1.7c0.2-3.4-2.9-11.2-4.6-11.4c0,0-1.3,0.5-2.9,5.8
						C454.9,406.3,398.4,437.8,396,439.1L396,439.1z"/>
				</g>
			</g>
		</g>
		<g>
			<g>
				<g>
					<path class="st2" d="M147,437.3c-3.5-1.9-58.8-33.5-85.7-91.4c-5.1-17.6-11.9,1.2-11.6,6.3c0.2,3.8-1.4,42,22.8,82.5
						c11,18.4,4,41.7,26.4,56.2C160.1,530.4,162.8,446,147,437.3z"/>
				</g>
			</g>
			<g>
				<g>
					<path class="st3" d="M127.4,503.5c-8.6,0-18.5-3.6-29.7-10.9c-14.6-9.4-17.3-22.6-19.9-35.2c-1.6-7.7-3.1-15-7.1-21.6
						c-10.3-17.2-22.7-45.4-23.1-82c0-0.7,0-1.2,0-1.5c-0.2-3.6,2.8-14.9,8.1-15.8c4.9-0.9,7,6.4,7.7,8.8
						c26.9,57.9,82.3,88.8,84.7,90.1l0,0c5.6,3.1,9.3,13.6,9.3,26.7c0,13.9-4.5,31.3-17.3,38.3C136.2,502.5,132,503.5,127.4,503.5z
						 M56.4,340.7c-1.6,0.2-4.8,8-4.6,11.4c0,0.3,0,0.9,0,1.7c0.4,35.6,12.4,63.1,22.5,79.8c4.4,7.3,6,15.2,7.6,23
						c2.6,12.4,5,24,18.1,32.5c15.8,10.2,28.5,12.8,37.9,7.6c11.1-6.1,15.1-21.9,15.1-34.6c0-11-3-20.7-7.1-22.9
						c-2.4-1.3-58.9-32.9-86.6-92.3C57.7,341.2,56.4,340.7,56.4,340.7z"/>
				</g>
			</g>
		</g>
	</g>
	<g>
		<path class="st1" d="M270.8,468.8c-62.2,0-120.6-24.4-164.5-68.7c-44-44.3-68.2-103.1-68.2-165.8c0-62.6,24.2-121.5,68.2-165.8
			C150.2,24.4,208.6,0,270.8,0s120.6,24.4,164.5,68.7c44,44.3,68.2,103.1,68.2,165.8c0,62.6-24.2,121.5-68.2,165.8
			C391.4,444.5,332.9,468.8,270.8,468.8z M270.8,14.7c-120.3,0-218.1,98.6-218.1,219.7c0,121.2,97.8,219.7,218.1,219.7
			s218.1-98.6,218.1-219.7S391,14.7,270.8,14.7z"/>
	</g>
	<path class="st2" d="M106.6,513.2c0,0,30.4-10.5,29.4-50h265.7c0,0-2.8,40.4,32.5,50H106.6z"/>
	<g>
		<path class="st1" d="M303.6,419.4c0,0-7.4-6.2-1.6-17.8c5.8-11.5,10.2-12.2,4.2-31c-1.1-3.4,1.7-1.6,2.9,0
			c1.2,1.6,13.2,15.6,11.3,26.8C318.5,408.6,316.8,412.9,303.6,419.4z"/>
		<path class="st1" d="M246.8,419.4c0,0,7.4-6.2,1.6-17.8c-5.8-11.5-10.2-12.2-4.2-31c1.1-3.4-1.7-1.6-2.9,0s-13.2,15.6-11.3,26.8
			C231.9,408.6,233.6,412.9,246.8,419.4z"/>
		<path class="st2" d="M278.2,300.7c-6.1,0.7-28.6,58.8-31.6,79.4c-0.1,11.9,14.1,20.3,7.1,34.4c-7.1,14.1,45,16.7,46.2,1.8
			c-11.1-12.7,5.9-23.5,4.6-35.6C302.9,368.7,284.3,299.9,278.2,300.7z"/>
	</g>
	<rect x="140" y="420" class="st2" width="266.5" height="21.4"/>
	<path class="st4" d="M413.3,465.2H134.2c-0.8,0-1.5-0.7-1.5-1.5V438c0-0.8,0.7-1.5,1.5-1.5h279.1c0.8,0,1.5,0.7,1.5,1.5v25.7
		C414.8,464.6,414.2,465.2,413.3,465.2z"/>
	<path class="st5" d="M277.2,214.2h0.4C277.6,214.2,277.6,214.2,277.2,214.2C277.6,214.2,277.6,214.2,277.2,214.2z"/>
	<ellipse class="st1" cx="200.2" cy="207.5" rx="50.5" ry="50.9"/>
	<path class="st5" d="M413.1,189.2c-10.9-23.2-29.8-39.2-49.8-44.1l0,0h-0.8c-7.9-1.9-16.2-1.9-24.2,0H216.5
		c-7.9-1.9-16.2-1.9-24.2,0h-0.8l0,0c-19.6,4.9-38.5,20.9-49.4,44.1c-17,36.5-25.3,116,3.4,129.3c24.9,11.8,69.8-29.7,92.5-65.8
		h79.6c22.3,35.7,67.2,77.6,92.5,65.8C438.4,305.2,430.1,225.7,413.1,189.2z M183.6,182.7v-10.6h10.9h10.6v10.6v10.6l-10.6,12.9
		L184,193.4v-10.6L183.6,182.7L183.6,182.7z M166.6,221.9h-10.9v-11v-10.6h10.9h10.6l12.8,10.6l-12.8,10.6h-10.6V221.9z M205.1,239
		v11h-10.6h-10.9v-11v-10.6l10.6-12.9l10.6,12.9V239H205.1z M233.1,210.9v11h-10.6h-10.6l-12.8-10.6l12.8-10.6h10.6h10.6V210.9z
		 M267,237.1h-12.8c-2.3,0-4.2-1.9-4.2-4.2s1.9-4.2,4.2-4.2H267c2.3,0,4.2,1.9,4.2,4.2C271.2,235.2,269.3,237.1,267,237.1z
		 M301,237.1h-12.8c-2.3,0-4.2-1.9-4.2-4.2s1.9-4.2,4.2-4.2H301c2.3,0,4.2,1.9,4.2,4.2C305.5,235.2,303.6,237.1,301,237.1z
		 M364,172.1c7.2,0,12.8,5.7,12.8,12.9s-5.7,12.9-12.8,12.9s-12.8-5.7-12.8-12.9S357.2,172.1,364,172.1z M338.4,223.8
		c-7.2,0-12.8-5.7-12.8-12.9s5.7-12.9,12.8-12.9s12.8,5.7,12.8,12.9S345.5,223.8,338.4,223.8z M364,250c-7.2,0-12.8-5.7-12.8-12.9
		s5.7-12.9,12.8-12.9s12.8,5.7,12.8,12.9C376.9,244,371.2,250,364,250z M390.1,223.8c-7.2,0-12.8-5.7-12.8-12.9S383,198,390.1,198
		s12.8,5.7,12.8,12.9S396.9,223.8,390.1,223.8z"/>
	<path class="st1" d="M410.3,461H138c-0.6,0-1.2-0.5-1.2-1.2v-11c0-0.1,0-0.1,0.1-0.1h274.4c0.1,0,0.1,0,0.1,0.1v11
		C411.4,460.5,410.9,461,410.3,461z"/>
	<g>
		<path class="st1" d="M445.7,552.4v-3.5c-8,4.3-16.9,10.2-17.2,14.4c0,0.3-0.1,0.9,0.5,1.7h4.2C440.1,565,445.7,559.3,445.7,552.4z
			"/>
		<path class="st1" d="M121,563.1c0,0.6,0,1.2-0.2,1.9h304.9c-0.2-0.7-0.2-1.4-0.2-1.9c0.5-6.7,13.1-14,20.3-17.7v-20.9
			c0-0.2-0.2-0.4-0.4-0.4H102.8c-0.2,0-0.4,0.2-0.4,0.4v21.8C109.7,550.1,120.5,556.9,121,563.1z"/>
		<path class="st1" d="M117.9,563.3c-0.3-3.9-7.9-9.3-15.5-13.5v2.6c0,6.9,5.6,12.6,12.5,12.6h2.4
			C117.9,564.2,117.9,563.6,117.9,563.3z"/>
	</g>
</g>
</svg>
